<?xml version="1.0" encoding="utf-8"?>
<!-- Generator: Adobe Illustrator 25.0.0, SVG Export Plug-In . SVG Version: 6.00 Build 0)  -->
<svg version="1.1" id="svg318" xmlns="http://www.w3.org/2000/svg" xmlns:xlink="http://www.w3.org/1999/xlink" x="0px" y="0px"
	 viewBox="0 0 1200 800" style="enable-background:new 0 0 1200 800;" xml:space="preserve">
<style type="text/css">
	.st0{fill:none;}
	.st1{fill:#B7B7DA;}
</style>
<path class="st0" d="z"/>
<g id="g316" transform="translate(-64 -64.45)">
	<path id="path314" class="st1" d="M554.31,330.1l-45.16,45.19L464,330.1l45.16-45.16L554.31,330.1z M664,220.45l77.41,77.41
		l45.19-45.16L664,130.1L541.41,252.7l45.19,45.16L664,220.45z M818.84,284.95l-45.16,45.16l45.16,45.19L864,330.1L818.84,284.95z
		 M664,439.79l-77.41-77.41l-45.19,45.16L664,530.1l122.59-122.56l-45.19-45.16L664,439.79z M664,375.29l45.16-45.19L664,284.95
		l-45.16,45.16L664,375.29z M213.22,747.89v-0.44c0-23.59-12.5-35.38-32.84-43.16c12.5-7,23.06-18.03,23.06-37.84v-0.5
		c0-27.59-22.06-45.41-57.94-45.41H64V796.1h83.5C187.12,796.04,213.22,779.98,213.22,747.89z M165.06,672.89
		c0,13.06-10.78,18.56-27.84,18.56H101.5v-37.13h38.12c16.28,0,25.31,6.53,25.31,18.06L165.06,672.89z M174.84,743.1
		c0,13.06-10.28,19.06-27.34,19.06h-46v-38.62h44.75c19.81,0,28.59,7.28,28.59,19.06L174.84,743.1z M294.22,796.04V620.48h-38.62
		v175.56H294.22z M501.81,796.04V620.48h-38.12V728.7L381.44,620.6h-35.62v175.56h38.12V684.42l85.03,111.62L501.81,796.04z
		 M715.75,796.04L640.5,619.32h-35.59l-75.28,176.72H569l16.06-39.38h74.25l16.06,39.38L715.75,796.04z M645.53,722.45h-46.66
		l23.31-56.91L645.53,722.45z M899.84,795.95V620.48h-38.13V728.7l-82.09-108.22H744v175.56h38.13V684.42l85,111.62L899.84,795.95z
		 M1099.22,767.6l-24.56-25c-13.81,12.5-26.09,20.56-46.16,20.56c-30.09,0-50.91-25-50.91-55.16v-0.5
		c0-30.09,21.31-54.69,50.91-54.69c17.56,0,31.25,7.53,44.91,19.81l24.56-28.34c-16.31-16.03-36.12-27.06-69.22-27.06
		c-53.91,0-91.53,40.88-91.53,90.78v0.5c0,50.41,38.38,90.28,90.03,90.28c33.84,0.25,53.91-11.78,71.97-31.09V767.6z M1264,796.04
		v-34.38h-95.31v-36.88h82.81v-34.38h-82.81v-35.56h94.06v-34.38h-132.41v175.56H1264z"/>
</g>
<path class="st0" d="z"/>
</svg>
