<?xml version="1.0" encoding="utf-8"?>
<!-- Generator: Adobe Illustrator 25.0.0, SVG Export Plug-In . SVG Version: 6.00 Build 0)  -->
<svg version="1.1" id="svg318" xmlns="http://www.w3.org/2000/svg" xmlns:xlink="http://www.w3.org/1999/xlink" x="0px" y="0px"
	 viewBox="0 0 1200 800" style="enable-background:new 0 0 1200 800;" xml:space="preserve">
<style type="text/css">
	.st0{fill:none;}
	.st1{fill:#B7B7DA;}
</style>
<path class="st0" d="z"/>
<g id="g316" transform="translate(-64 -64.45)">
	<path id="path314" class="st1" d="M572.92,1188.2l-45.16,45.19l-45.16-45.19l45.16-45.16L572.92,1188.2z M682.61,1078.54
		l77.41,77.41l45.19-45.16L682.61,988.2l-122.59,122.59l45.19,45.16L682.61,1078.54z M837.45,1143.04l-45.16,45.16l45.16,45.19
		l45.16-45.19L837.45,1143.04z M682.61,1297.89l-77.41-77.41l-45.19,45.16l122.59,122.56l122.59-122.56l-45.19-45.16L682.61,1297.89
		z M682.61,1233.39l45.16-45.19l-45.16-45.16l-45.16,45.16L682.61,1233.39z M231.82,1605.98v-0.44c0-23.59-12.5-35.38-32.84-43.16
		c12.5-7,23.06-18.03,23.06-37.84v-0.5c0-27.59-22.06-45.41-57.94-45.41h-81.5v175.56h83.5
		C205.73,1654.14,231.82,1638.07,231.82,1605.98z M183.67,1530.98c0,13.06-10.78,18.56-27.84,18.56h-35.72v-37.13h38.12
		c16.28,0,25.31,6.53,25.31,18.06L183.67,1530.98z M193.45,1601.2c0,13.06-10.28,19.06-27.34,19.06h-46v-38.62h44.75
		c19.81,0,28.59,7.28,28.59,19.06L193.45,1601.2z M312.82,1654.14v-175.56H274.2v175.56H312.82z M520.42,1654.14v-175.56h-38.12
		v108.22l-82.25-108.09h-35.62v175.56h38.12v-111.75l85.03,111.62L520.42,1654.14z M734.36,1654.14l-75.25-176.72h-35.59
		l-75.28,176.72h39.38l16.06-39.38h74.25l16.06,39.38L734.36,1654.14z M664.14,1580.54h-46.66l23.31-56.91L664.14,1580.54z
		 M918.45,1654.04v-175.47h-38.13v108.22l-82.09-108.22h-35.62v175.56h38.13v-111.62l85,111.62L918.45,1654.04z M1117.82,1625.7
		l-24.56-25c-13.81,12.5-26.09,20.56-46.16,20.56c-30.09,0-50.91-25-50.91-55.16v-0.5c0-30.09,21.31-54.69,50.91-54.69
		c17.56,0,31.25,7.53,44.91,19.81l24.56-28.34c-16.31-16.03-36.12-27.06-69.22-27.06c-53.91,0-91.53,40.88-91.53,90.78v0.5
		c0,50.41,38.38,90.28,90.03,90.28c33.84,0.25,53.91-11.78,71.97-31.09V1625.7z M1282.61,1654.14v-34.38h-95.31v-36.88h82.81v-34.38
		h-82.81v-35.56h94.06v-34.38h-132.41v175.56H1282.61z"/>
</g>
<path class="st0" d="z"/>
<g>
	<path class="st1" d="M181.79,511.58c-47.04,0-94.09,0.02-141.13-0.01c-22.6-0.01-40.55-17.71-40.59-40.26
		c-0.09-47.53-0.1-95.06,0.01-142.59c0.05-21.93,18.19-40.22,40.06-40.24c94.62-0.09,189.23-0.08,283.85,0
		c20.67,0.02,38.06,16.27,40.01,36.96c0.08,0.79,0.14,1.59,0.14,2.38c-0.02,48.57,0.6,97.16-0.34,145.71
		c-0.44,22.94-18.47,38.05-41.68,38.05C275.34,511.58,228.56,511.58,181.79,511.58z M150.72,397.47c0.73-1.17,1.21-2.12,1.86-2.93
		c12.16-15.08,14.85-31.73,6.31-49.09c-8.8-17.88-24.07-26.11-44-25.95c-15.15,0.12-30.3,0.02-45.46,0.02c-6.01,0-12.02,0-18.01,0
		c0,54.92,0,108.68,0,162.28c27.37,0,54.26,1.5,80.9-0.43c25.88-1.88,42.45-24.35,40.08-50.18
		C171.05,416.4,162.36,405.97,150.72,397.47z M323.14,455.78c-9,1.56-16.75,3.38-24.6,4.16c-16.67,1.66-23.27-4.47-23.3-20.91
		c-0.03-16.72-0.03-33.45,0.02-50.17c0.01-2.78,0.31-5.56,0.51-9.1c13.91,0,26.81,0,39.75,0c0-6.84,0-12.85,0-19.76
		c-13.51,0-26.64,0-40.53,0c0-13.81,0-26.72,0-39.83c-6.96,0-13.13,0-19.62,0c0,42.83-0.34,85.02,0.18,127.21
		c0.18,15.07,10.73,26.75,25.77,30.72c15.99,4.22,31.42,1.37,47.13-4.49C326.62,467.45,324.91,461.71,323.14,455.78z M199.5,476.69
		c6.91,0,12.86,0,18.72,0c0-37.38,0-74.14,0-110.88c-6.6,0-12.56,0-18.72,0C199.5,403.02,199.5,439.62,199.5,476.69z M198.21,346.94
		c7.98,0,15.02,0,22.22,0c0-5.9,0-11.31,0-16.65c-7.8,0-15.04,0-22.22,0C198.21,336.17,198.21,341.38,198.21,346.94z"/>
	<path class="st1" d="M786.87,374.48c11.48-13.32,24.61-20.65,41.2-19.68c25.1,1.47,45.18,21.09,46.03,46.42
		c0.9,26.78,0.2,53.61,0.2,81.04c-6.55,0-13.01,0-20.52,0c0-6.79,0-13.61,0-20.42c-0.01-18.06,0.24-36.11-0.1-54.16
		c-0.36-19.29-11.85-31.95-28.22-31.83c-16.17,0.12-27.49,13.47-27.51,32.55c-0.03,24.42-0.01,48.84-0.01,73.88
		c-6.81,0-13.31,0-21.01,0c0-2.51,0-5.3,0-8.1c0-22.83,0.12-45.67-0.04-68.5c-0.13-17.89-13.32-30.76-30.11-29.81
		c-14.1,0.8-25.42,13.94-25.61,30.48c-0.25,22.3-0.07,44.61-0.07,66.91c0,2.88,0,5.75,0,9.13c-7,0-13.46,0-20.74,0
		c0-20.85-0.1-41.48,0.05-62.11c0.06-8.2-0.32-16.58,1.18-24.57c3.66-19.55,15.04-33.29,34.4-38.96
		c18.8-5.51,35.08-0.23,48.49,13.93C785.39,371.62,785.92,372.92,786.87,374.48z"/>
	<path class="st1" d="M652.11,405.59c0.96-18.13-12.45-31.42-31.72-32.63c-13.39-0.84-25.74,2.63-37.35,9.12
		c-3.19,1.78-6.36,3.61-10.2,5.8c-3.56-6.06-6.86-11.66-10.46-17.78c23.16-15.18,47.15-23.11,74.23-14.99
		c22.04,6.61,36.01,23.69,36.74,46.69c0.84,26.71,0.2,53.46,0.2,80.65c-6.78,0-13.3,0-20.33,0c-0.27-2.97-0.53-5.77-0.87-9.4
		c-15.76,8.79-32.37,11.01-49.58,9.8c-3.69-0.26-7.42-0.66-11.02-1.5c-19.6-4.58-32.78-21-31.71-39.28
		c1.07-18.23,16.95-34.23,36.77-35.66c14.54-1.05,29.19-0.61,43.79-0.81C644.28,405.54,647.98,405.59,652.11,405.59z M652.38,427.13
		c-18.43,0-36.4-0.48-54.33,0.2c-9.06,0.34-16.7,8.59-17.2,16.15c-0.51,7.63,5.93,16.24,15.74,17.1c11.39,1,23.36,0.96,34.44-1.51
		C647.49,455.41,653.57,445.07,652.38,427.13z"/>
	<path class="st1" d="M901.12,324.23c7.13,0,13.4,0,20.56,0c0,12.76,0,25.62,0,39.32c6.01-1.48,10.96-2.96,16.01-3.91
		c39.23-7.36,70.54,18.24,70.72,58.11c0.04,7.88-0.41,16.06-2.5,23.59c-11.16,40.12-60.4,54.84-93.02,28.48
		c-8.35-6.75-12.41-13.72-12.12-25.17c0.92-37.12,0.34-74.28,0.34-111.43C901.12,330.36,901.12,327.51,901.12,324.23z
		 M922.13,419.89c0,8.22-0.43,16.47,0.21,24.64c0.25,3.18,2.13,7.11,4.58,9.09c21.45,17.37,52.57,7.24,59.11-19.42
		c1.73-7.04,2.05-14.81,1.17-22.03c-3.43-28.27-34.08-42.36-58.49-27.44c-4.75,2.9-7.15,6.23-6.72,12.11
		C922.55,404.48,922.13,412.2,922.13,419.89z"/>
	<path class="st1" d="M532.12,440.65c-10.32,29.02-42.18,46.47-73.51,41.52c-32.23-5.1-56.39-29.79-61.24-62.59
		c-3.19-21.57-1.26-42.51,9.58-61.74c14.15-25.1,37.06-35.19,64.79-33.64c30.17,1.69,51.94,17.33,60.42,41.99
		c-7.36,0-14.35,0.13-21.32-0.13c-1.24-0.05-2.67-1.54-3.57-2.7C493,345,473.81,341.9,452.83,347.02
		c-20.89,5.1-30.45,20.99-34.36,40.69c-3.7,18.61-1.53,36.55,9.42,52.59c18.54,27.15,57.06,29.47,78.09,4.41
		c4.93-5.88,10.54-3.37,15.98-3.99C525.05,440.36,528.21,440.65,532.12,440.65z"/>
	<path class="st1" d="M1199.71,418.84c3.02,34.4-21.81,63.92-60.16,64.05c-34.61,0.11-61.88-28.3-61.79-64.42
		c0.1-38.06,24.59-63.64,61.27-63.85C1179.42,354.39,1202.9,385.68,1199.71,418.84z M1139.35,375.84
		c-25.49-0.02-40.39,15.67-40.4,42.55c-0.01,25.23,17.09,43.49,40.75,43.51c24.75,0.02,40.22-16.71,40.07-43.33
		C1179.61,391.62,1164.7,375.86,1139.35,375.84z"/>
	<path class="st1" d="M1034.63,366.27c6.63,0,12.91,0,19.95,0c0,36.98,0,73.96,0,111.53c-6.36,0-12.87,0-19.95,0
		C1034.63,440.78,1034.63,403.78,1034.63,366.27z"/>
	<path class="st1" d="M1033.84,348.5c0-6.27,0-11.76,0-17.79c7.76,0,15.21,0,23.15,0c0,5.98,0,11.63,0,17.79
		C1049.33,348.5,1041.87,348.5,1033.84,348.5z"/>
	<path class="st1" d="M70.87,462.04c0-17.39,0-33.72,0-50.62c20.67,0,41.03-0.91,61.25,0.34c12.27,0.76,21.11,13.31,20.8,25.35
		c-0.32,12.49-10.08,24.21-22.6,24.72C110.76,462.62,91.16,462.04,70.87,462.04z"/>
	<path class="st1" d="M70.95,390.28c0-16.98,0-33.5,0-50.66c17.04,0,33.7-0.65,50.28,0.22c12.27,0.65,21.91,12.03,22.38,24.04
		c0.5,12.61-8.27,25.16-20.8,26.08C105.76,391.22,88.54,390.28,70.95,390.28z"/>
</g>
</svg>
