<?xml version="1.0" encoding="utf-8"?>
<!-- Generator: Adobe Illustrator 25.0.0, SVG Export Plug-In . SVG Version: 6.00 Build 0)  -->
<svg version="1.1" id="svg318" xmlns="http://www.w3.org/2000/svg" xmlns:xlink="http://www.w3.org/1999/xlink" x="0px" y="0px"
	 viewBox="0 0 1200 800" style="enable-background:new 0 0 1200 800;" xml:space="preserve">
<style type="text/css">
	.st0{fill:none;}
	.st1{fill:#B7B7DA;}
</style>
<path class="st0" d="z"/>
<g id="g316" transform="translate(-64 -64.45)">
	<path id="path314" class="st1" d="M572.92,1188.2l-45.16,45.19l-45.16-45.19l45.16-45.16L572.92,1188.2z M682.61,1078.54
		l77.41,77.41l45.19-45.16L682.61,988.2l-122.59,122.59l45.19,45.16L682.61,1078.54z M837.45,1143.04l-45.16,45.16l45.16,45.19
		l45.16-45.19L837.45,1143.04z M682.61,1297.89l-77.41-77.41l-45.19,45.16l122.59,122.56l122.59-122.56l-45.19-45.16L682.61,1297.89
		z M682.61,1233.39l45.16-45.19l-45.16-45.16l-45.16,45.16L682.61,1233.39z M231.82,1605.98v-0.44c0-23.59-12.5-35.38-32.84-43.16
		c12.5-7,23.06-18.03,23.06-37.84v-0.5c0-27.59-22.06-45.41-57.94-45.41h-81.5v175.56h83.5
		C205.73,1654.14,231.82,1638.07,231.82,1605.98z M183.67,1530.98c0,13.06-10.78,18.56-27.84,18.56h-35.72v-37.13h38.12
		c16.28,0,25.31,6.53,25.31,18.06L183.67,1530.98z M193.45,1601.2c0,13.06-10.28,19.06-27.34,19.06h-46v-38.62h44.75
		c19.81,0,28.59,7.28,28.59,19.06L193.45,1601.2z M312.82,1654.14v-175.56H274.2v175.56H312.82z M520.42,1654.14v-175.56h-38.12
		v108.22l-82.25-108.09h-35.62v175.56h38.12v-111.75l85.03,111.62L520.42,1654.14z M734.36,1654.14l-75.25-176.72h-35.59
		l-75.28,176.72h39.38l16.06-39.38h74.25l16.06,39.38L734.36,1654.14z M664.14,1580.54h-46.66l23.31-56.91L664.14,1580.54z
		 M918.45,1654.04v-175.47h-38.13v108.22l-82.09-108.22h-35.62v175.56h38.13v-111.62l85,111.62L918.45,1654.04z M1117.82,1625.7
		l-24.56-25c-13.81,12.5-26.09,20.56-46.16,20.56c-30.09,0-50.91-25-50.91-55.16v-0.5c0-30.09,21.31-54.69,50.91-54.69
		c17.56,0,31.25,7.53,44.91,19.81l24.56-28.34c-16.31-16.03-36.12-27.06-69.22-27.06c-53.91,0-91.53,40.88-91.53,90.78v0.5
		c0,50.41,38.38,90.28,90.03,90.28c33.84,0.25,53.91-11.78,71.97-31.09V1625.7z M1282.61,1654.14v-34.38h-95.31v-36.88h82.81v-34.38
		h-82.81v-35.56h94.06v-34.38h-132.41v175.56H1282.61z"/>
</g>
<path class="st0" d="z"/>
<g>
	<path class="st1" d="M167.54,565.81c-10.31,0.23-18.82,0.35-27.17-1.04c-10.8-1.8-21.41-4.51-31.7-8.36
		c-16.31-6.1-31.3-14.56-44.95-25.33c-16.22-12.81-29.51-28.23-40.07-45.97c-9.78-16.43-16.25-34.12-20.19-52.8
		c-3.27-15.51-4.32-31.23-2.74-46.89c1.35-13.39,4.16-26.64,8.63-39.51c5.44-15.67,12.86-30.22,22.5-43.67
		c10.66-14.87,23.48-27.59,38.34-38.29c13.1-9.43,27.28-16.83,42.53-21.96c13.96-4.7,28.26-8.1,43.17-8.01
		c10.97,0.07,21.96-0.56,32.88,0.85c7.14,0.92,14.2,2.44,21.13,4.39c21.81,6.13,41.59,16.24,59.27,30.43
		c20.37,16.35,35.8,36.52,46.79,60.15c0.92,1.99-0.09,3.16-1.21,4.43c-8.91,10.07-17.84,20.14-26.75,30.21
		c-6.5,7.34-13.03,14.64-19.44,22.06c-1.66,1.92-2.71,2.23-4.66,0.24c-8.63-8.8-17.38-17.48-26.17-26.12
		c-1.72-1.69-1.78-2.75-0.11-4.61c8.09-9,15.96-18.19,24.02-27.22c1.51-1.69,1.4-2.81,0.07-4.5
		c-13.37-16.98-29.92-29.74-49.96-37.99c-12.37-5.09-25.17-7.96-38.52-8.72c-33.55-1.91-62.77,8.58-87.83,30.69
		c-16.78,14.81-28.36,33.07-35.17,54.43c-3.35,10.51-5.08,21.21-5.6,32.2c-1.26,26.58,5.63,51,20.26,73.02
		c13.94,20.99,32.69,36.46,56.31,45.91c12.12,4.85,24.62,7.67,37.61,8.42c27.83,1.61,53.18-5.71,76.15-21.35
		c11.66-7.94,21.58-17.69,29.9-29.1c1.18-1.62,1.07-2.52-0.31-3.91c-26.38-26.34-52.72-52.72-79.05-79.11
		c-3.15-3.16-6.71-5.4-11.01-6.83c-7.52-2.51-18.18,0.9-23.31,8.6c-4.59,6.89-4.57,17.22,0.36,24.53
		c7.51,11.15,23.77,12.68,33.25,3.11c1.32-1.33,2.68-2.67,3.77-4.18c1.22-1.71,2.2-1.48,3.51-0.16
		c9.27,9.33,18.57,18.62,27.85,27.93c0.91,0.92,1.6,1.62,0.32,3.08c-8.19,9.37-17.88,16.47-29.8,20.39
		c-13.92,4.58-27.74,4.61-41.71-0.08c-15.76-5.29-27.71-15.17-36.01-29.34c-7.95-13.56-10.95-28.22-8.17-43.85
		c4.48-25.17,18.91-42.62,42.79-51c23.24-8.15,45.33-4.06,64.16,12.11c13.37,11.48,25.16,24.7,37.57,37.22
		c17.21,17.35,34.55,34.57,51.82,51.86c5.98,5.99,11.87,12.06,17.88,18.01c1.55,1.53,1.79,2.67,0.81,4.85
		c-7.3,16.16-16.86,30.85-28.39,44.25c-9.3,10.81-20.28,19.78-31.88,28.02c-13.5,9.61-28.1,17.14-43.89,22.05
		C199.26,564.37,182.7,566.99,167.54,565.81z"/>
	<path class="st1" d="M917.98,400.87c0-32.67,0.04-65.34-0.06-98.01c-0.01-2.8,0.78-3.48,3.52-3.47c39.62,0.09,79.24,0.09,118.86,0
		c3-0.01,3.91,0.76,3.84,3.82c-0.21,8.97-0.16,17.95-0.02,26.93c0.04,2.57-0.68,3.35-3.35,3.34c-28.43-0.1-56.87-0.02-85.3-0.13
		c-2.93-0.01-3.68,0.82-3.65,3.69c0.14,14.4,0.14,28.81,0,43.21c-0.03,2.82,0.64,3.73,3.62,3.72c27.6-0.12,55.2-0.02,82.79-0.14
		c3.09-0.01,3.92,0.94,3.86,3.92c-0.17,8.87-0.16,17.75,0,26.62c0.05,2.76-0.77,3.57-3.54,3.56c-27.7-0.09-55.41-0.02-83.11-0.12
		c-2.65-0.01-3.65,0.5-3.63,3.39c0.14,14.72,0.14,29.44,0,44.15c-0.03,2.81,0.84,3.45,3.56,3.44c28.33-0.1,56.66-0.01,84.99-0.13
		c3.09-0.01,3.82,0.93,3.76,3.87c-0.19,8.97-0.13,17.95-0.02,26.93c0.03,2.42-0.61,3.18-3.17,3.17c-39.93-0.09-79.87-0.1-119.8,0.01
		c-2.87,0.01-3.2-1.04-3.2-3.43C917.99,466.42,917.97,433.64,917.98,400.87z"/>
	<path class="st1" d="M473.14,298.03c32.89,0.7,59.82,13.61,80.57,39.26c1.43,1.76,1.35,2.53-0.7,3.72
		c-8.96,5.2-17.27,11.26-24.2,19.05c-1.64,1.84-2.45,0.46-3.38-0.7c-6.72-8.47-14.87-15.15-24.79-19.56
		c-15.8-7.02-31.92-8.17-48.39-2.53c-20.6,7.05-34.45,21.01-41.78,41.32c-4.43,12.27-4.94,24.94-1.53,37.54
		c5.81,21.49,19.07,36.78,39.73,45.19c16.35,6.65,32.91,6.57,49.32-0.2c0.38-0.16,0.79-0.28,1.19-0.37
		c1.97-0.44,3.67-2.98,5.54-1.91c1.7,0.98,1.56,3.71,2.28,5.65c3.02,8.15,6.76,15.92,11.91,22.91c1.81,2.46,0.92,3.25-1.19,4.23
		c-11.91,5.56-24.32,8.99-37.53,9.86c-23.78,1.56-45.5-4.29-65.04-17.73c-17.95-12.35-30.63-28.91-38.06-49.46
		c-4.34-12-6.4-24.4-5.94-37.07c0.94-26.09,10.24-48.81,28.39-67.82c11.76-12.31,25.77-21.02,41.87-26.36
		C451.67,299.64,462.26,297.96,473.14,298.03z"/>
	<path class="st1" d="M675.16,428.83c-0.5-38.97-32.26-70.95-72.1-70.87c-39.48-0.01-71.48,31.47-72,70.94
		c-0.54,40.83,32.77,73.58,73.48,72.89C642.56,501.15,675.68,469.86,675.16,428.83z M604.66,470.05
		c-23.22,0.97-42.34-18.5-41.74-40.46c-0.19-21.59,18-39.03,38.21-39.85c23.37-0.95,42.22,17.01,42.31,39.94
		C643.54,452.52,625.64,469.17,604.66,470.05z"/>
	<path class="st1" d="M751.57,430.14c0-23.27,0-46.54,0-69.81c0-0.7-0.4-1.54,0.34-2.03c0.93-0.62,1.53,0.29,2.18,0.72
		c6.55,4.26,13.15,8.44,19.58,12.88c2.03,1.4,3.25,1.31,5.14-0.21c13.24-10.65,28.54-15.95,45.44-15.8
		c34.26,0.29,62.71,24.31,69.68,56.1c1.19,5.42,1.81,10.88,1.8,16.42c-0.01,23.37-0.06,46.75,0.06,70.12c0.02,3.11-0.74,4.19-4,4.1
		c-8.14-0.23-16.3-0.16-24.45-0.02c-2.61,0.05-3.38-0.76-3.37-3.37c0.09-23.06,0.06-46.12,0.06-69.18
		c-0.01-17.54-7.47-30.71-23.38-38.51c-20.26-9.93-45.37-0.16-54.07,20.77c-1.98,4.77-3.01,9.7-3,14.89
		c0.06,24.1-0.01,48.21,0.08,72.31c0.01,2.37-0.42,3.33-3.04,3.28c-8.78-0.16-17.56-0.08-26.33-0.04c-1.8,0.01-2.8-0.16-2.79-2.51
		C751.61,476.89,751.57,453.51,751.57,430.14z"/>
	<path class="st1" d="M1180.15,502.24c-5.44,0-10.87-0.1-16.31,0.04c-2.39,0.06-3.75-0.86-5.05-2.83
		c-8.28-12.51-16.7-24.93-25.11-37.36c-2.11-3.12-2.2-3.1-4.26-0.07c-8.5,12.5-17.02,24.99-25.43,37.55
		c-1.31,1.96-2.74,2.75-5.12,2.72c-10.66-0.12-21.32-0.04-31.99-0.08c-0.96,0-2.31,0.61-2.8-0.63c-0.41-1.03,0.51-1.92,1.1-2.79
		c14.94-21.99,29.84-44,44.83-65.96c1.46-2.13,1.73-3.6,0.12-5.97c-15.03-22.05-29.88-44.23-44.78-66.37
		c-0.56-0.84-1.62-1.65-0.93-2.75c0.57-0.91,1.73-0.47,2.63-0.47c11.08-0.04,22.16-0.03,33.24-0.11c1.69-0.01,2.64,0.73,3.53,2.06
		c8.57,12.83,17.2,25.62,25.81,38.43c1.99,2.96,2,2.99,4.05-0.03c8.5-12.5,17.04-24.96,25.41-37.54c1.47-2.2,3.07-2.91,5.63-2.89
		c11.18,0.09,22.37-0.01,33.55-0.05c0.59,0,1.3-0.31,1.62,0.49c0.2,0.5,0.11,0.98-0.26,1.44c-6.87,8.4-12.37,17.74-18.53,26.63
		c-9.61,13.87-18.92,27.95-28.43,41.9c-1.11,1.63-1.1,2.77,0.02,4.43c15.22,22.42,30.37,44.89,45.51,67.37
		c0.49,0.73,1.41,1.56,0.91,2.46c-0.44,0.8-1.54,0.35-2.34,0.35C1191.23,502.26,1185.69,502.25,1180.15,502.24z"/>
	<path class="st1" d="M695.43,429.73c0-22.95,0.06-45.9-0.07-68.85c-0.02-3.07,0.91-3.9,3.91-3.82c8.25,0.2,16.51,0.15,24.76,0.02
		c2.63-0.04,3.69,0.63,3.69,3.49c-0.08,46.22-0.07,92.43-0.01,138.65c0,2.56-0.69,3.45-3.35,3.4c-8.56-0.16-17.14-0.18-25.7,0.01
		c-2.76,0.06-3.29-0.93-3.28-3.41C695.46,476.05,695.43,452.89,695.43,429.73z"/>
	<path class="st1" d="M711.78,296.97c11.19-0.91,22.77,10.58,22.12,23.22c-0.6,11.53-10.54,21.56-22.57,21.34
		c-12.22-0.23-22.25-9.84-22.23-22.58C689.1,307.64,698.71,296.17,711.78,296.97z"/>
</g>
</svg>
