<?xml version="1.0" encoding="utf-8"?>
<!-- Generator: Adobe Illustrator 25.0.0, SVG Export Plug-In . SVG Version: 6.00 Build 0)  -->
<svg version="1.1" id="Camada_1" xmlns="http://www.w3.org/2000/svg" xmlns:xlink="http://www.w3.org/1999/xlink" x="0px" y="0px"
	 viewBox="0 0 200 324" style="enable-background:new 0 0 200 324;" xml:space="preserve">
<style type="text/css">
	.Graphic_x0020_Style_x0020_2{fill:url(#SVGID_1_);}
	.Graphic_x0020_Style_x0020_3{fill:url(#SVGID_2_);}
	.st0{fill:url(#SVGID_3_);}
	.st1{fill:#FFA98C;}
	.st2{fill:url(#SVGID_4_);}
	.st3{fill:url(#SVGID_5_);}
	.st4{fill:url(#SVGID_6_);}
	.st5{fill:url(#SVGID_7_);}
	.st6{fill:url(#SVGID_8_);}
	.st7{fill:url(#SVGID_9_);}
	.st8{fill:url(#SVGID_10_);}
	.st9{fill:url(#SVGID_11_);}
	.st10{fill:url(#SVGID_12_);}
	.st11{fill:url(#SVGID_13_);}
	.st12{fill:url(#SVGID_14_);}
	.st13{fill:url(#SVGID_15_);}
	.st14{fill:url(#SVGID_16_);}
	.st15{fill:url(#SVGID_17_);}
	.st16{fill:url(#SVGID_18_);}
	.st17{fill:url(#SVGID_19_);}
	.st18{fill:url(#SVGID_20_);}
	.st19{fill:url(#SVGID_21_);}
	.st20{fill:url(#SVGID_22_);}
	.st21{fill:url(#SVGID_23_);}
	.st22{fill:url(#SVGID_24_);}
	.st23{fill:#2AF6FF;}
	.st24{fill:url(#SVGID_25_);}
	.st25{fill:url(#SVGID_26_);}
	.st26{fill:url(#SVGID_27_);}
	.st27{fill:url(#SVGID_28_);}
	.st28{fill:url(#SVGID_29_);}
	.st29{fill:url(#SVGID_30_);}
	.st30{fill:url(#SVGID_31_);}
	.st31{fill:url(#SVGID_32_);}
	.st32{fill:url(#SVGID_33_);}
	.st33{fill:url(#SVGID_34_);}
	.st34{fill:url(#SVGID_35_);}
	.st35{fill:url(#SVGID_36_);}
	.st36{fill:url(#SVGID_37_);}
	.st37{fill:url(#SVGID_38_);}
	.st38{fill:url(#SVGID_39_);}
	.st39{fill:url(#SVGID_40_);}
	.st40{fill:url(#SVGID_41_);}
	.st41{fill:url(#SVGID_42_);}
	.st42{fill:url(#SVGID_43_);}
	.st43{fill:url(#SVGID_44_);}
	.st44{fill:url(#SVGID_45_);}
</style>
<linearGradient id="SVGID_1_" gradientUnits="userSpaceOnUse" x1="-860" y1="-378" x2="-859.0242" y2="-378.2188">
	<stop  offset="0.0354" style="stop-color:#138BBD"/>
	<stop  offset="0.2257" style="stop-color:#169AC7"/>
	<stop  offset="0.5946" style="stop-color:#1FC3DF"/>
	<stop  offset="1" style="stop-color:#2AF6FF"/>
</linearGradient>
<linearGradient id="SVGID_2_" gradientUnits="userSpaceOnUse" x1="-860" y1="-378" x2="-859.0421" y2="-378.2869">
	<stop  offset="0.0303" style="stop-color:#7C1DC9"/>
	<stop  offset="0.2138" style="stop-color:#6E41D2"/>
	<stop  offset="0.6184" style="stop-color:#4C9BE8"/>
	<stop  offset="1" style="stop-color:#2AF6FF"/>
</linearGradient>
<g>
	<g>
		<linearGradient id="SVGID_3_" gradientUnits="userSpaceOnUse" x1="165.9952" y1="223.2082" x2="120.2721" y2="235.0131">
			<stop  offset="0.0152" style="stop-color:#FFA98C"/>
			<stop  offset="0.0748" style="stop-color:#C46AA7"/>
			<stop  offset="0.1334" style="stop-color:#9033C0"/>
			<stop  offset="0.1616" style="stop-color:#7C1DC9"/>
			<stop  offset="0.3203" style="stop-color:#6E41D2"/>
			<stop  offset="0.67" style="stop-color:#4C9BE8"/>
			<stop  offset="1" style="stop-color:#2AF6FF"/>
		</linearGradient>
		<polygon class="st0" points="140.2,267.15 132.72,262.74 132.72,229.78 127.36,219.55 127.36,195.9 128.35,195.9 128.35,219.31 
			133.72,229.53 133.72,262.17 140.2,265.98 173.35,245.6 173.87,246.45 		"/>
		<path class="st1" d="M176.53,246.46c-1.12,0.65-2.94,0.64-4.07-0.01c-1.13-0.65-1.13-1.7-0.01-2.35c1.12-0.65,2.94-0.64,4.07,0.01
			C177.64,244.76,177.65,245.81,176.53,246.46z"/>
		<linearGradient id="SVGID_4_" gradientUnits="userSpaceOnUse" x1="159.012" y1="242.1625" x2="113.289" y2="253.9673">
			<stop  offset="0.0152" style="stop-color:#FFA98C"/>
			<stop  offset="0.0748" style="stop-color:#C46AA7"/>
			<stop  offset="0.1334" style="stop-color:#9033C0"/>
			<stop  offset="0.1616" style="stop-color:#7C1DC9"/>
			<stop  offset="0.3203" style="stop-color:#6E41D2"/>
			<stop  offset="0.67" style="stop-color:#4C9BE8"/>
			<stop  offset="1" style="stop-color:#2AF6FF"/>
		</linearGradient>
		<polygon class="st2" points="133.22,286.1 125.74,281.69 125.74,248.73 120.37,238.51 120.37,214.86 121.37,214.86 121.37,238.26 
			126.73,248.49 126.73,281.12 133.21,284.94 166.37,264.55 166.89,265.41 		"/>
		<path class="st1" d="M169.54,265.41c-1.12,0.65-2.94,0.64-4.07-0.01c-1.13-0.65-1.13-1.7-0.01-2.35s2.94-0.64,4.07,0.01
			C170.66,263.71,170.66,264.76,169.54,265.41z"/>
		<linearGradient id="SVGID_5_" gradientUnits="userSpaceOnUse" x1="56.7171" y1="217.3209" x2="82.6545" y2="234.7788">
			<stop  offset="0.0152" style="stop-color:#FFA98C"/>
			<stop  offset="0.0748" style="stop-color:#C46AA7"/>
			<stop  offset="0.1334" style="stop-color:#9033C0"/>
			<stop  offset="0.1616" style="stop-color:#7C1DC9"/>
			<stop  offset="0.3203" style="stop-color:#6E41D2"/>
			<stop  offset="0.67" style="stop-color:#4C9BE8"/>
			<stop  offset="1" style="stop-color:#2AF6FF"/>
		</linearGradient>
		<polygon class="st3" points="66.17,267.44 65.91,267.28 33.94,247.52 34.46,246.67 66.18,266.27 80.64,257.6 80.64,237.04 
			91.61,219.33 91.61,195.94 92.61,195.94 92.61,219.61 81.63,237.32 81.63,258.16 		"/>
		<path class="st1" d="M34.75,248.03c-1.12,0.65-2.94,0.64-4.07-0.01c-1.13-0.65-1.13-1.7-0.01-2.35c1.12-0.65,2.94-0.64,4.07,0.01
			C35.86,246.33,35.87,247.38,34.75,248.03z"/>
		<linearGradient id="SVGID_6_" gradientUnits="userSpaceOnUse" x1="56.8418" y1="236.0257" x2="82.7792" y2="253.4836">
			<stop  offset="0.0152" style="stop-color:#FFA98C"/>
			<stop  offset="0.0748" style="stop-color:#C46AA7"/>
			<stop  offset="0.1334" style="stop-color:#9033C0"/>
			<stop  offset="0.1616" style="stop-color:#7C1DC9"/>
			<stop  offset="0.3203" style="stop-color:#6E41D2"/>
			<stop  offset="0.67" style="stop-color:#4C9BE8"/>
			<stop  offset="1" style="stop-color:#2AF6FF"/>
		</linearGradient>
		<polygon class="st4" points="66.29,286.15 66.03,285.99 34.07,266.23 34.59,265.38 66.3,284.98 80.76,276.3 80.76,255.74 
			91.73,238.03 91.73,214.65 92.73,214.65 92.73,238.32 81.76,256.03 81.76,276.87 		"/>
		<path class="st1" d="M34.87,266.73c-1.12,0.65-2.94,0.64-4.07-0.01s-1.13-1.7-0.01-2.35c1.12-0.65,2.94-0.64,4.07,0.01
			C35.99,265.03,35.99,266.09,34.87,266.73z"/>
		<g>
			<g>
				<linearGradient id="SVGID_7_" gradientUnits="userSpaceOnUse" x1="122.7419" y1="294.1476" x2="245.4864" y2="257.3937">
					<stop  offset="0" style="stop-color:#25054D"/>
					<stop  offset="1" style="stop-color:#45108A"/>
				</linearGradient>
				<polygon class="st5" points="103.53,303.58 103.53,312.42 160.61,279.13 160.61,270.29 				"/>
				<linearGradient id="SVGID_8_" gradientUnits="userSpaceOnUse" x1="-4.0285" y1="309.0245" x2="157.3988" y2="272.8377">
					<stop  offset="0" style="stop-color:#25054D"/>
					<stop  offset="1" style="stop-color:#45108A"/>
				</linearGradient>
				<polygon class="st6" points="103.56,303.58 103.56,312.42 46.29,279.03 46.29,270.23 				"/>
				<linearGradient id="SVGID_9_" gradientUnits="userSpaceOnUse" x1="154.0974" y1="173.7402" x2="90.0779" y2="295.7481">
					<stop  offset="0.7374" style="stop-color:#45108A"/>
					<stop  offset="1" style="stop-color:#3746A3"/>
				</linearGradient>
				<polygon class="st7" points="46.29,270.23 103.56,303.58 160.61,270.29 103.28,236.9 				"/>
			</g>
			<g>
				<linearGradient id="SVGID_10_" gradientUnits="userSpaceOnUse" x1="94.0965" y1="292.0499" x2="208.7371" y2="257.7226">
					<stop  offset="0.0303" style="stop-color:#7C1DC9"/>
					<stop  offset="0.2138" style="stop-color:#6E41D2"/>
					<stop  offset="0.6184" style="stop-color:#4C9BE8"/>
					<stop  offset="1" style="stop-color:#2AF6FF"/>
				</linearGradient>
				<polygon class="st8" points="103.53,292.09 103.53,301.42 156.56,270.49 156.56,261.15 				"/>
				<linearGradient id="SVGID_11_" gradientUnits="userSpaceOnUse" x1="3.202" y1="297.7905" x2="153.9774" y2="263.9915">
					<stop  offset="0.0354" style="stop-color:#138BBD"/>
					<stop  offset="0.2257" style="stop-color:#169AC7"/>
					<stop  offset="0.5946" style="stop-color:#1FC3DF"/>
					<stop  offset="1" style="stop-color:#2AF6FF"/>
				</linearGradient>
				<polygon class="st9" points="103.56,292.09 103.56,301.42 50.34,270.4 50.34,261.1 				"/>
			</g>
		</g>
		<g>
			<g>
				<linearGradient id="SVGID_12_" gradientUnits="userSpaceOnUse" x1="122.5358" y1="278.3676" x2="247.9927" y2="240.8015">
					<stop  offset="0" style="stop-color:#25054D"/>
					<stop  offset="1" style="stop-color:#45108A"/>
				</linearGradient>
				<polygon class="st10" points="103.53,285.17 103.53,299.15 160.61,265.86 160.61,251.87 				"/>
				<linearGradient id="SVGID_13_" gradientUnits="userSpaceOnUse" x1="-5.7872" y1="293.5769" x2="159.2355" y2="256.5841">
					<stop  offset="0" style="stop-color:#25054D"/>
					<stop  offset="1" style="stop-color:#45108A"/>
				</linearGradient>
				<polygon class="st11" points="103.56,285.17 103.56,299.15 46.29,265.76 46.29,251.82 				"/>
				<linearGradient id="SVGID_14_" gradientUnits="userSpaceOnUse" x1="154.0974" y1="155.3268" x2="90.0779" y2="277.3347">
					<stop  offset="0.7374" style="stop-color:#45108A"/>
					<stop  offset="1" style="stop-color:#3746A3"/>
				</linearGradient>
				<polygon class="st12" points="46.29,251.82 103.56,285.17 160.61,251.87 103.28,218.49 				"/>
			</g>
			<g>
				<linearGradient id="SVGID_15_" gradientUnits="userSpaceOnUse" x1="94.0965" y1="273.705" x2="208.7371" y2="239.3776">
					<stop  offset="0.0303" style="stop-color:#7C1DC9"/>
					<stop  offset="0.2138" style="stop-color:#6E41D2"/>
					<stop  offset="0.6184" style="stop-color:#4C9BE8"/>
					<stop  offset="1" style="stop-color:#2AF6FF"/>
				</linearGradient>
				<polygon class="st13" points="103.53,273.74 103.53,283.07 156.56,252.14 156.56,242.81 				"/>
				<linearGradient id="SVGID_16_" gradientUnits="userSpaceOnUse" x1="3.202" y1="279.4456" x2="153.9774" y2="245.6465">
					<stop  offset="0.0354" style="stop-color:#138BBD"/>
					<stop  offset="0.2257" style="stop-color:#169AC7"/>
					<stop  offset="0.5946" style="stop-color:#1FC3DF"/>
					<stop  offset="1" style="stop-color:#2AF6FF"/>
				</linearGradient>
				<polygon class="st14" points="103.56,273.74 103.56,283.07 50.34,252.05 50.34,242.75 				"/>
			</g>
		</g>
		<g>
			<g>
				<linearGradient id="SVGID_17_" gradientUnits="userSpaceOnUse" x1="122.3296" y1="257.5127" x2="250.4989" y2="219.1345">
					<stop  offset="0" style="stop-color:#25054D"/>
					<stop  offset="1" style="stop-color:#45108A"/>
				</linearGradient>
				<polygon class="st15" points="103.53,261.68 103.53,280.81 160.61,247.51 160.61,228.39 				"/>
				<linearGradient id="SVGID_18_" gradientUnits="userSpaceOnUse" x1="-7.5459" y1="273.0546" x2="161.0722" y2="235.2558">
					<stop  offset="0" style="stop-color:#25054D"/>
					<stop  offset="1" style="stop-color:#45108A"/>
				</linearGradient>
				<polygon class="st16" points="103.56,261.68 103.56,280.81 46.29,247.42 46.29,228.33 				"/>
				<linearGradient id="SVGID_19_" gradientUnits="userSpaceOnUse" x1="154.0974" y1="131.8385" x2="90.0779" y2="253.8464">
					<stop  offset="0.7374" style="stop-color:#45108A"/>
					<stop  offset="1" style="stop-color:#3746A3"/>
				</linearGradient>
				<polygon class="st17" points="46.29,228.33 103.56,261.68 160.61,228.39 103.28,195 				"/>
			</g>
			<g>
				<linearGradient id="SVGID_20_" gradientUnits="userSpaceOnUse" x1="94.0965" y1="249.9423" x2="208.7371" y2="215.615">
					<stop  offset="0.0303" style="stop-color:#7C1DC9"/>
					<stop  offset="0.2138" style="stop-color:#6E41D2"/>
					<stop  offset="0.6184" style="stop-color:#4C9BE8"/>
					<stop  offset="1" style="stop-color:#2AF6FF"/>
				</linearGradient>
				<polygon class="st18" points="103.53,249.98 103.53,259.31 156.56,228.38 156.56,219.04 				"/>
				<linearGradient id="SVGID_21_" gradientUnits="userSpaceOnUse" x1="3.202" y1="255.6829" x2="153.9774" y2="221.8839">
					<stop  offset="0.0354" style="stop-color:#138BBD"/>
					<stop  offset="0.2257" style="stop-color:#169AC7"/>
					<stop  offset="0.5946" style="stop-color:#1FC3DF"/>
					<stop  offset="1" style="stop-color:#2AF6FF"/>
				</linearGradient>
				<polygon class="st19" points="103.56,249.98 103.56,259.31 50.34,228.29 50.34,218.99 				"/>
			</g>
		</g>
		<g>
			<linearGradient id="SVGID_22_" gradientUnits="userSpaceOnUse" x1="122.0822" y1="230.3998" x2="253.5065" y2="191.0469">
				<stop  offset="0" style="stop-color:#25054D"/>
				<stop  offset="1" style="stop-color:#45108A"/>
			</linearGradient>
			<polygon class="st20" points="103.53,231.4 103.53,256.7 160.61,223.41 160.61,198.11 			"/>
			<linearGradient id="SVGID_23_" gradientUnits="userSpaceOnUse" x1="-9.6564" y1="246.3407" x2="163.2763" y2="207.5747">
				<stop  offset="0" style="stop-color:#25054D"/>
				<stop  offset="1" style="stop-color:#45108A"/>
			</linearGradient>
			<polygon class="st21" points="103.56,231.4 103.56,256.7 46.29,223.32 46.29,198.05 			"/>
			<linearGradient id="SVGID_24_" gradientUnits="userSpaceOnUse" x1="128.8013" y1="149.7746" x2="79.0719" y2="244.5485">
				<stop  offset="0.1364" style="stop-color:#45108A"/>
				<stop  offset="1" style="stop-color:#3746A3"/>
			</linearGradient>
			<polygon class="st22" points="46.29,198.05 103.56,231.4 160.61,198.11 103.28,164.73 			"/>
		</g>
		<path class="st23" d="M64.21,219.93c0,1.29-0.91,1.81-2.04,1.16c-1.13-0.65-2.04-2.23-2.04-3.52c0-1.29,0.91-1.81,2.04-1.16
			C63.3,217.06,64.21,218.64,64.21,219.93z"/>
		<path class="st23" d="M128.73,229.02c0,1.29-0.91,2.87-2.04,3.52c-1.13,0.65-2.04,0.13-2.04-1.16c0-1.29,0.91-2.87,2.04-3.52
			C127.82,227.2,128.73,227.72,128.73,229.02z"/>
		<path class="st23" d="M147.27,265.26c0,1.29-0.91,2.87-2.04,3.52c-1.13,0.65-2.04,0.13-2.04-1.16c0-1.29,0.91-2.87,2.04-3.52
			C146.36,263.45,147.27,263.97,147.27,265.26z"/>
		<linearGradient id="SVGID_25_" gradientUnits="userSpaceOnUse" x1="121.9518" y1="322.6933" x2="115.9662" y2="230.4164">
			<stop  offset="0.0152" style="stop-color:#FFA98C"/>
			<stop  offset="0.0748" style="stop-color:#C46AA7"/>
			<stop  offset="0.1334" style="stop-color:#9033C0"/>
			<stop  offset="0.1616" style="stop-color:#7C1DC9"/>
			<stop  offset="0.3203" style="stop-color:#6E41D2"/>
			<stop  offset="0.67" style="stop-color:#4C9BE8"/>
			<stop  offset="1" style="stop-color:#2AF6FF"/>
		</linearGradient>
		<polygon class="st24" points="130.73,321.41 109.82,308.87 109.86,287.67 126.19,253.61 126.19,230.2 127.19,230.2 127.19,253.83 
			127.14,253.94 110.81,288 110.81,308.31 131.24,320.56 		"/>
		<path class="st23" d="M140.54,248.22c0,1.29-0.91,2.87-2.04,3.52c-1.13,0.65-2.04,0.13-2.04-1.16s0.91-2.87,2.04-3.52
			C139.62,246.41,140.54,246.93,140.54,248.22z"/>
		<linearGradient id="SVGID_26_" gradientUnits="userSpaceOnUse" x1="152.7027" y1="322.2495" x2="124.3979" y2="255.3474">
			<stop  offset="0.0152" style="stop-color:#FFA98C"/>
			<stop  offset="0.0748" style="stop-color:#C46AA7"/>
			<stop  offset="0.1334" style="stop-color:#9033C0"/>
			<stop  offset="0.1616" style="stop-color:#7C1DC9"/>
			<stop  offset="0.3203" style="stop-color:#6E41D2"/>
			<stop  offset="0.67" style="stop-color:#4C9BE8"/>
			<stop  offset="1" style="stop-color:#2AF6FF"/>
		</linearGradient>
		<polygon class="st25" points="161.69,321.31 124.78,299.65 124.78,293.48 124.86,293.36 138,272.78 138,249.4 139,249.4 
			139,273.07 138.92,273.19 125.78,293.77 125.78,299.08 161.68,320.15 168.32,316.14 168.84,316.99 		"/>
		<linearGradient id="SVGID_27_" gradientUnits="userSpaceOnUse" x1="16.8778" y1="285.2735" x2="72.5767" y2="237.3891">
			<stop  offset="0.0152" style="stop-color:#FFA98C"/>
			<stop  offset="0.0748" style="stop-color:#C46AA7"/>
			<stop  offset="0.1334" style="stop-color:#9033C0"/>
			<stop  offset="0.1616" style="stop-color:#7C1DC9"/>
			<stop  offset="0.3203" style="stop-color:#6E41D2"/>
			<stop  offset="0.67" style="stop-color:#4C9BE8"/>
			<stop  offset="1" style="stop-color:#2AF6FF"/>
		</linearGradient>
		<polygon class="st26" points="36.49,291.22 36.23,291.06 4.26,271.3 4.79,270.45 36.5,290.05 50.96,281.37 50.96,260.81 
			61.93,243.1 61.93,219.72 62.93,219.72 62.93,243.39 51.96,261.1 51.96,281.94 		"/>
		<path class="st1" d="M5.07,271.8c-1.12,0.65-2.94,0.64-4.07-0.01c-1.13-0.65-1.13-1.7-0.01-2.35c1.12-0.65,2.94-0.64,4.07,0.01
			C6.18,270.1,6.19,271.16,5.07,271.8z"/>
		<path class="st23" d="M77.93,258.34c0,1.29-0.91,1.81-2.04,1.16c-1.13-0.65-2.04-2.23-2.04-3.52c0-1.29,0.91-1.81,2.04-1.16
			C77.02,255.47,77.93,257.05,77.93,258.34z"/>
		<linearGradient id="SVGID_28_" gradientUnits="userSpaceOnUse" x1="36.6355" y1="308.1155" x2="81.2539" y2="268.5767">
			<stop  offset="0.0152" style="stop-color:#FFA98C"/>
			<stop  offset="0.0748" style="stop-color:#C46AA7"/>
			<stop  offset="0.1334" style="stop-color:#9033C0"/>
			<stop  offset="0.1616" style="stop-color:#7C1DC9"/>
			<stop  offset="0.3203" style="stop-color:#6E41D2"/>
			<stop  offset="0.67" style="stop-color:#4C9BE8"/>
			<stop  offset="1" style="stop-color:#2AF6FF"/>
		</linearGradient>
		<polygon class="st27" points="43.23,309.59 30.76,303.48 31.2,302.59 43.18,308.45 69.91,292.6 69.91,279.26 75.65,270.53 
			75.65,258.13 76.65,258.13 76.65,270.83 70.91,279.56 70.91,293.16 70.67,293.3 		"/>
		<path class="st1" d="M31.28,304.21c-1.12,0.65-2.94,0.64-4.07-0.01c-1.13-0.65-1.13-1.7-0.01-2.35c1.12-0.65,2.94-0.64,4.07,0.01
			C32.39,302.51,32.4,303.56,31.28,304.21z"/>
		<path class="st23" d="M90.16,241.93c0,1.29-0.91,1.81-2.04,1.16c-1.13-0.65-2.04-2.23-2.04-3.52s0.91-1.81,2.04-1.16
			C89.25,239.06,90.16,240.64,90.16,241.93z"/>
		<path class="st23" d="M84.92,279.84c0,1.29-0.91,1.81-2.04,1.16c-1.13-0.65-2.04-2.23-2.04-3.52s0.91-1.81,2.04-1.16
			C84.01,276.97,84.92,278.55,84.92,279.84z"/>
		<linearGradient id="SVGID_29_" gradientUnits="userSpaceOnUse" x1="89.5399" y1="315.2811" x2="94.633" y2="243.4996">
			<stop  offset="0.0152" style="stop-color:#FFA98C"/>
			<stop  offset="0.0748" style="stop-color:#C46AA7"/>
			<stop  offset="0.1334" style="stop-color:#9033C0"/>
			<stop  offset="0.1616" style="stop-color:#7C1DC9"/>
			<stop  offset="0.3203" style="stop-color:#6E41D2"/>
			<stop  offset="0.67" style="stop-color:#4C9BE8"/>
			<stop  offset="1" style="stop-color:#2AF6FF"/>
		</linearGradient>
		<polygon class="st28" points="86.58,315.07 86.07,314.22 96.1,308.31 96.1,287.98 87.62,265.78 87.62,242.25 88.62,242.25 
			88.62,265.68 97.1,287.89 97.1,308.87 		"/>
		<path class="st1" d="M88.12,316.07c-1.12,0.65-2.94,0.64-4.07-0.01c-1.13-0.65-1.13-1.7-0.01-2.35c1.12-0.65,2.94-0.64,4.07,0.01
			C89.23,314.37,89.24,315.42,88.12,316.07z"/>
		<linearGradient id="SVGID_30_" gradientUnits="userSpaceOnUse" x1="54.7565" y1="324.2755" x2="88.1758" y2="283.5404">
			<stop  offset="0.0152" style="stop-color:#FFA98C"/>
			<stop  offset="0.0748" style="stop-color:#C46AA7"/>
			<stop  offset="0.1334" style="stop-color:#9033C0"/>
			<stop  offset="0.1616" style="stop-color:#7C1DC9"/>
			<stop  offset="0.3203" style="stop-color:#6E41D2"/>
			<stop  offset="0.67" style="stop-color:#4C9BE8"/>
			<stop  offset="1" style="stop-color:#2AF6FF"/>
		</linearGradient>
		<polygon class="st29" points="48.71,320.99 48.22,320.13 82.88,300.32 82.88,279.91 83.88,279.91 83.88,300.9 83.63,301.04 		"/>
		<path class="st1" d="M50.26,321.99c-1.12,0.65-2.94,0.64-4.07-0.01c-1.13-0.65-1.13-1.7-0.01-2.35c1.12-0.65,2.94-0.64,4.07,0.01
			C51.37,320.29,51.38,321.34,50.26,321.99z"/>
		<path class="st1" d="M134.3,323.24c-1.12,0.65-2.94,0.64-4.07-0.01c-1.13-0.65-1.13-1.7-0.01-2.35s2.94-0.64,4.07,0.01
			C135.42,321.54,135.42,322.59,134.3,323.24z"/>
		<path class="st1" d="M183.72,292.56c-1.12,0.65-2.94,0.64-4.07-0.01c-1.13-0.65-1.13-1.7-0.01-2.35c1.12-0.65,2.94-0.64,4.07,0.01
			C184.84,290.86,184.84,291.91,183.72,292.56z"/>
		<path class="st1" d="M171.49,316.99c-1.12,0.65-2.94,0.64-4.07-0.01s-1.13-1.7-0.01-2.35c1.12-0.65,2.94-0.64,4.07,0.01
			C172.61,315.3,172.61,316.35,171.49,316.99z"/>
		<path class="st23" d="M152.38,214.05c0,1.29-0.91,2.87-2.04,3.52c-1.13,0.65-2.04,0.13-2.04-1.16s0.91-2.87,2.04-3.52
			C151.47,212.24,152.38,212.76,152.38,214.05z"/>
		<linearGradient id="SVGID_31_" gradientUnits="userSpaceOnUse" x1="183.1121" y1="278.4136" x2="136.5578" y2="232.3581">
			<stop  offset="0.0152" style="stop-color:#FFA98C"/>
			<stop  offset="0.0748" style="stop-color:#C46AA7"/>
			<stop  offset="0.1334" style="stop-color:#9033C0"/>
			<stop  offset="0.1616" style="stop-color:#7C1DC9"/>
			<stop  offset="0.3203" style="stop-color:#6E41D2"/>
			<stop  offset="0.67" style="stop-color:#4C9BE8"/>
			<stop  offset="1" style="stop-color:#2AF6FF"/>
		</linearGradient>
		<polygon class="st30" points="162.69,286.48 155.21,282.06 155.21,249.11 149.84,238.88 149.84,215.23 150.84,215.23 
			150.84,238.64 156.2,248.86 156.2,281.49 162.68,285.31 195.84,264.93 196.36,265.78 		"/>
		<path class="st1" d="M199.01,265.78c-1.12,0.65-2.94,0.64-4.07-0.01c-1.13-0.65-1.13-1.7-0.01-2.35s2.94-0.64,4.07,0.01
			C200.13,264.09,200.13,265.14,199.01,265.78z"/>
		<linearGradient id="SVGID_32_" gradientUnits="userSpaceOnUse" x1="171.5494" y1="299.6922" x2="143.119" y2="267.8888">
			<stop  offset="0.0152" style="stop-color:#FFA98C"/>
			<stop  offset="0.0748" style="stop-color:#C46AA7"/>
			<stop  offset="0.1334" style="stop-color:#9033C0"/>
			<stop  offset="0.1616" style="stop-color:#7C1DC9"/>
			<stop  offset="0.3203" style="stop-color:#6E41D2"/>
			<stop  offset="0.67" style="stop-color:#4C9BE8"/>
			<stop  offset="1" style="stop-color:#2AF6FF"/>
		</linearGradient>
		<polygon class="st31" points="181.43,292.06 180.94,291.2 165.98,299.78 145.56,287.94 145.56,267.52 144.57,267.52 
			144.57,288.51 165.72,300.79 166.22,300.79 		"/>
	</g>
	<linearGradient id="SVGID_33_" gradientUnits="userSpaceOnUse" x1="85.9164" y1="42.4695" x2="115.096" y2="205.3264">
		<stop  offset="0.0152" style="stop-color:#FFA98C"/>
		<stop  offset="0.0748" style="stop-color:#C46AA7"/>
		<stop  offset="0.1334" style="stop-color:#9033C0"/>
		<stop  offset="0.1616" style="stop-color:#7C1DC9"/>
		<stop  offset="0.3203" style="stop-color:#6E41D2"/>
		<stop  offset="0.67" style="stop-color:#4C9BE8"/>
		<stop  offset="1" style="stop-color:#2AF6FF"/>
	</linearGradient>
	<polygon class="st32" points="117.15,206.32 116.16,206.32 116.16,200.12 103.07,192.7 103.07,89.56 87.07,65.32 87.08,42 
		88.08,42 88.07,65.02 104.07,89.26 104.07,192.11 117.15,199.54 	"/>
	<linearGradient id="SVGID_34_" gradientUnits="userSpaceOnUse" x1="121.5616" y1="63.4774" x2="117.5713" y2="195.1595">
		<stop  offset="0.0152" style="stop-color:#FFA98C"/>
		<stop  offset="0.0748" style="stop-color:#C46AA7"/>
		<stop  offset="0.1334" style="stop-color:#9033C0"/>
		<stop  offset="0.1616" style="stop-color:#7C1DC9"/>
		<stop  offset="0.3203" style="stop-color:#6E41D2"/>
		<stop  offset="0.67" style="stop-color:#4C9BE8"/>
		<stop  offset="1" style="stop-color:#2AF6FF"/>
	</linearGradient>
	<polygon class="st33" points="131.78,195.33 130.78,195.33 130.78,190.32 118.83,183.35 106.2,190.85 106.2,101.21 106.3,101.08 
		133.63,64.1 134.43,64.69 107.2,101.54 107.2,189.1 118.82,182.19 131.78,189.75 	"/>
	<linearGradient id="SVGID_35_" gradientUnits="userSpaceOnUse" x1="50.5847" y1="68.085" x2="93.4812" y2="180.8127">
		<stop  offset="0.0152" style="stop-color:#FFA98C"/>
		<stop  offset="0.0748" style="stop-color:#C46AA7"/>
		<stop  offset="0.1334" style="stop-color:#9033C0"/>
		<stop  offset="0.1616" style="stop-color:#7C1DC9"/>
		<stop  offset="0.3203" style="stop-color:#6E41D2"/>
		<stop  offset="0.67" style="stop-color:#4C9BE8"/>
		<stop  offset="1" style="stop-color:#2AF6FF"/>
	</linearGradient>
	<polygon class="st34" points="76.95,186.61 75.96,186.61 75.96,168.37 96.64,180.11 96.64,136.65 84.81,111.88 51,96.45 
		50.93,96.36 32.03,74.52 32.78,73.87 51.61,95.63 85.55,111.12 97.64,136.54 97.64,181.82 76.95,170.08 	"/>
	<linearGradient id="SVGID_36_" gradientUnits="userSpaceOnUse" x1="41.9856" y1="99.8503" x2="91.8246" y2="135.7344">
		<stop  offset="0.0152" style="stop-color:#FFA98C"/>
		<stop  offset="0.0748" style="stop-color:#C46AA7"/>
		<stop  offset="0.1334" style="stop-color:#9033C0"/>
		<stop  offset="0.1616" style="stop-color:#7C1DC9"/>
		<stop  offset="0.3203" style="stop-color:#6E41D2"/>
		<stop  offset="0.67" style="stop-color:#4C9BE8"/>
		<stop  offset="1" style="stop-color:#2AF6FF"/>
	</linearGradient>
	<polygon class="st35" points="88.41,139.06 80.99,123.06 38.95,103.83 39.36,102.92 81.74,122.31 89.32,138.64 	"/>
	<linearGradient id="SVGID_37_" gradientUnits="userSpaceOnUse" x1="76.9817" y1="78.3418" x2="104.4155" y2="196.3071">
		<stop  offset="0.0152" style="stop-color:#FFA98C"/>
		<stop  offset="0.0748" style="stop-color:#C46AA7"/>
		<stop  offset="0.1334" style="stop-color:#9033C0"/>
		<stop  offset="0.1616" style="stop-color:#7C1DC9"/>
		<stop  offset="0.3203" style="stop-color:#6E41D2"/>
		<stop  offset="0.67" style="stop-color:#4C9BE8"/>
		<stop  offset="1" style="stop-color:#2AF6FF"/>
	</linearGradient>
	<polygon class="st36" points="91.62,200.1 90.63,200.1 90.63,192.22 99.89,187.24 99.89,118.3 92.07,102.28 75.74,96.01 
		63.02,81.15 63.77,80.5 76.33,95.17 92.8,101.49 100.89,118.07 100.89,187.83 91.62,192.82 	"/>
	<linearGradient id="SVGID_38_" gradientUnits="userSpaceOnUse" x1="62.069" y1="74.8867" x2="98.4519" y2="74.8867">
		<stop  offset="0.0152" style="stop-color:#FFA98C"/>
		<stop  offset="0.0748" style="stop-color:#C46AA7"/>
		<stop  offset="0.1334" style="stop-color:#9033C0"/>
		<stop  offset="0.1616" style="stop-color:#7C1DC9"/>
		<stop  offset="0.3203" style="stop-color:#6E41D2"/>
		<stop  offset="0.67" style="stop-color:#4C9BE8"/>
		<stop  offset="1" style="stop-color:#2AF6FF"/>
	</linearGradient>
	<polygon class="st37" points="97.56,97.8 88.57,79.47 83.05,77.24 62.07,52.62 62.83,51.98 83.65,76.4 89.3,78.69 98.45,97.36 	"/>
	<circle class="st23" cx="104.04" cy="64.37" r="2.36"/>
	<path class="st1" d="M151.48,144.42c-5.86,0-10.62-4.77-10.62-10.62c0-5.86,4.77-10.62,10.62-10.62c5.86,0,10.62,4.77,10.62,10.62
		C162.11,139.66,157.34,144.42,151.48,144.42z M151.48,124.17c-5.31,0-9.63,4.32-9.63,9.63c0,5.31,4.32,9.63,9.63,9.63
		c5.31,0,9.63-4.32,9.63-9.63C161.11,128.49,156.79,124.17,151.48,124.17z"/>
	<path class="st1" d="M55.72,138.62c-5.86,0-10.62-4.77-10.62-10.62c0-5.86,4.77-10.62,10.62-10.62c5.86,0,10.62,4.77,10.62,10.62
		C66.34,133.86,61.57,138.62,55.72,138.62z M55.72,118.37c-5.31,0-9.63,4.32-9.63,9.63s4.32,9.63,9.63,9.63
		c5.31,0,9.63-4.32,9.63-9.63S61.02,118.37,55.72,118.37z"/>
	<path class="st1" d="M26.45,77.39c-5.86,0-10.62-4.77-10.62-10.62s4.77-10.62,10.62-10.62c5.86,0,10.62,4.77,10.62,10.62
		S32.31,77.39,26.45,77.39z M26.45,57.14c-5.31,0-9.63,4.32-9.63,9.63s4.32,9.63,9.63,9.63c5.31,0,9.63-4.32,9.63-9.63
		S31.76,57.14,26.45,57.14z"/>
	<path class="st1" d="M58.1,83c-5.86,0-10.62-4.77-10.62-10.62c0-5.86,4.77-10.62,10.62-10.62c5.86,0,10.62,4.77,10.62,10.62
		C68.72,78.23,63.96,83,58.1,83z M58.1,62.75c-5.31,0-9.63,4.32-9.63,9.63c0,5.31,4.32,9.63,9.63,9.63c5.31,0,9.63-4.32,9.63-9.63
		C67.73,67.06,63.41,62.75,58.1,62.75z"/>
	<path class="st1" d="M29.18,110.47c-5.86,0-10.62-4.77-10.62-10.62s4.77-10.62,10.62-10.62c5.86,0,10.62,4.77,10.62,10.62
		S35.04,110.47,29.18,110.47z M29.18,90.22c-5.31,0-9.63,4.32-9.63,9.63s4.32,9.63,9.63,9.63c5.31,0,9.63-4.32,9.63-9.63
		S34.49,90.22,29.18,90.22z"/>
	<path class="st1" d="M55.89,54.6c-5.86,0-10.62-4.77-10.62-10.62s4.77-10.62,10.62-10.62c5.86,0,10.62,4.77,10.62,10.62
		S61.75,54.6,55.89,54.6z M55.89,34.35c-5.31,0-9.63,4.32-9.63,9.63s4.32,9.63,9.63,9.63c5.31,0,9.63-4.32,9.63-9.63
		S61.2,34.35,55.89,34.35z"/>
	<path class="st1" d="M87.53,41.89c-5.86,0-10.62-4.77-10.62-10.62c0-5.86,4.77-10.62,10.62-10.62c5.86,0,10.62,4.77,10.62,10.62
		C98.16,37.13,93.39,41.89,87.53,41.89z M87.53,21.64c-5.31,0-9.63,4.32-9.63,9.63c0,5.31,4.32,9.63,9.63,9.63
		c5.31,0,9.63-4.32,9.63-9.63C97.16,25.96,92.84,21.64,87.53,21.64z"/>
	<path class="st1" d="M104.04,21.53c-5.86,0-10.62-4.77-10.62-10.62s4.77-10.62,10.62-10.62c5.86,0,10.62,4.77,10.62,10.62
		S109.9,21.53,104.04,21.53z M104.04,1.28c-5.31,0-9.63,4.32-9.63,9.63s4.32,9.63,9.63,9.63c5.31,0,9.63-4.32,9.63-9.63
		S109.35,1.28,104.04,1.28z"/>
	<path class="st1" d="M130.47,35.05c-5.86,0-10.62-4.77-10.62-10.62c0-5.86,4.77-10.62,10.62-10.62c5.86,0,10.62,4.77,10.62,10.62
		C141.09,30.28,136.33,35.05,130.47,35.05z M130.47,14.8c-5.31,0-9.63,4.32-9.63,9.63c0,5.31,4.32,9.63,9.63,9.63
		c5.31,0,9.63-4.32,9.63-9.63C140.09,19.12,135.77,14.8,130.47,14.8z"/>
	<path class="st1" d="M138.91,65.64c-5.86,0-10.62-4.77-10.62-10.62c0-5.86,4.77-10.62,10.62-10.62c5.86,0,10.62,4.77,10.62,10.62
		C149.53,60.88,144.76,65.64,138.91,65.64z M138.91,45.39c-5.31,0-9.63,4.32-9.63,9.63c0,5.31,4.32,9.63,9.63,9.63
		c5.31,0,9.63-4.32,9.63-9.63C148.53,49.71,144.21,45.39,138.91,45.39z"/>
	<path class="st1" d="M162.68,42.97c-5.86,0-10.62-4.77-10.62-10.62s4.77-10.62,10.62-10.62c5.86,0,10.62,4.77,10.62,10.62
		S168.54,42.97,162.68,42.97z M162.68,22.72c-5.31,0-9.63,4.32-9.63,9.63s4.32,9.63,9.63,9.63c5.31,0,9.63-4.32,9.63-9.63
		S167.99,22.72,162.68,22.72z"/>
	<path class="st1" d="M174.65,70.21c-5.86,0-10.62-4.77-10.62-10.62c0-5.86,4.77-10.62,10.62-10.62c5.86,0,10.62,4.77,10.62,10.62
		C185.27,65.45,180.51,70.21,174.65,70.21z M174.65,49.96c-5.31,0-9.63,4.32-9.63,9.63c0,5.31,4.32,9.63,9.63,9.63
		c5.31,0,9.63-4.32,9.63-9.63C184.28,54.28,179.96,49.96,174.65,49.96z"/>
	<path class="st1" d="M179.85,107.72c-5.86,0-10.62-4.77-10.62-10.62c0-5.86,4.77-10.62,10.62-10.62c5.86,0,10.62,4.77,10.62,10.62
		C190.47,102.95,185.71,107.72,179.85,107.72z M179.85,87.47c-5.31,0-9.63,4.32-9.63,9.63c0,5.31,4.32,9.63,9.63,9.63
		c5.31,0,9.63-4.32,9.63-9.63C189.48,91.78,185.16,87.47,179.85,87.47z"/>
	<path class="st23" d="M118.63,207.32c-1.12,0.65-2.94,0.64-4.07-0.01c-1.13-0.65-1.13-1.7-0.01-2.35c1.12-0.65,2.94-0.64,4.07,0.01
		C119.74,205.62,119.75,206.67,118.63,207.32z"/>
	<path class="st23" d="M133.44,196.81c-1.12,0.65-2.94,0.64-4.07-0.01c-1.13-0.65-1.13-1.7-0.01-2.35c1.12-0.65,2.94-0.64,4.07,0.01
		C134.55,195.11,134.56,196.16,133.44,196.81z"/>
	<linearGradient id="SVGID_39_" gradientUnits="userSpaceOnUse" x1="160.5365" y1="64.0119" x2="108.6617" y2="172.0012">
		<stop  offset="0.0152" style="stop-color:#FFA98C"/>
		<stop  offset="0.0748" style="stop-color:#C46AA7"/>
		<stop  offset="0.1334" style="stop-color:#9033C0"/>
		<stop  offset="0.1616" style="stop-color:#7C1DC9"/>
		<stop  offset="0.3203" style="stop-color:#6E41D2"/>
		<stop  offset="0.67" style="stop-color:#4C9BE8"/>
		<stop  offset="1" style="stop-color:#2AF6FF"/>
	</linearGradient>
	<polygon class="st38" points="109.27,179.89 109.27,133.34 109.37,133.21 135.66,98.34 135.77,98.29 168.7,81.95 172.07,69.34 
		173.04,69.6 169.55,82.64 136.32,99.13 110.27,133.67 110.27,178.12 121.32,171.44 121.32,178.95 120.32,178.95 120.32,173.21 	"/>
	<linearGradient id="SVGID_40_" gradientUnits="userSpaceOnUse" x1="142.2499" y1="138.4561" x2="116.3125" y2="151.4249">
		<stop  offset="0.0152" style="stop-color:#FFA98C"/>
		<stop  offset="0.0748" style="stop-color:#C46AA7"/>
		<stop  offset="0.1334" style="stop-color:#9033C0"/>
		<stop  offset="0.1616" style="stop-color:#7C1DC9"/>
		<stop  offset="0.3203" style="stop-color:#6E41D2"/>
		<stop  offset="0.67" style="stop-color:#4C9BE8"/>
		<stop  offset="1" style="stop-color:#2AF6FF"/>
	</linearGradient>
	<polygon class="st39" points="116.69,151.76 116.24,150.87 141.97,138.07 142.41,138.96 	"/>
	<path class="st23" d="M122.78,180.18c-1.12,0.65-2.94,0.64-4.07-0.01c-1.13-0.65-1.13-1.7-0.01-2.35c1.12-0.65,2.94-0.64,4.07,0.01
		C123.89,178.48,123.9,179.53,122.78,180.18z"/>
	<path class="st23" d="M78.54,187.97c-1.12,0.65-2.94,0.64-4.07-0.01c-1.13-0.65-1.13-1.7-0.01-2.35c1.12-0.65,2.94-0.64,4.07,0.01
		C79.65,186.27,79.66,187.32,78.54,187.97z"/>
	<path class="st23" d="M93.19,201.65c-1.12,0.65-2.94,0.64-4.07-0.01c-1.13-0.65-1.13-1.7-0.01-2.35c1.12-0.65,2.94-0.64,4.07,0.01
		C94.31,199.95,94.31,201,93.19,201.65z"/>
	<polygon class="st23" points="91.03,212.56 90.03,212.56 90.03,207.74 100.15,201.83 100.15,194.71 101.14,194.71 101.14,202.41 
		91.03,208.31 	"/>
	<path class="st23" d="M92.6,214.12c-1.12,0.65-2.94,0.64-4.07-0.01c-1.13-0.65-1.13-1.7-0.01-2.35c1.12-0.65,2.94-0.64,4.07,0.01
		C93.71,212.42,93.72,213.47,92.6,214.12z"/>
	<path class="st23" d="M102.68,197.93c0,1.29-0.91,1.81-2.04,1.16c-1.13-0.65-2.04-2.23-2.04-3.52s0.91-1.81,2.04-1.16
		C101.77,195.06,102.68,196.64,102.68,197.93z"/>
	<polygon class="st23" points="133.37,208.68 132.37,208.68 132.37,204.43 116.69,195.42 116.69,187.73 117.69,187.73 
		117.69,194.84 133.37,203.85 	"/>
	<path class="st23" d="M130.81,210.23c1.12,0.65,2.94,0.64,4.07-0.01s1.13-1.7,0.01-2.35c-1.12-0.65-2.94-0.64-4.07,0.01
		C129.69,208.53,129.69,209.58,130.81,210.23z"/>
	<path class="st23" d="M115.15,190.94c0,1.29,0.91,1.81,2.04,1.16c1.13-0.65,2.04-2.23,2.04-3.52c0-1.29-0.91-1.81-2.04-1.16
		C116.06,188.08,115.15,189.65,115.15,190.94z"/>
	<polygon class="st23" points="71.42,207.57 70.42,207.57 70.42,199.89 88.6,189.4 88.6,183.91 89.59,183.91 89.59,189.97 
		71.42,200.46 	"/>
	<path class="st23" d="M72.98,209.12c-1.12,0.65-2.94,0.64-4.07-0.01c-1.13-0.65-1.13-1.7-0.01-2.35c1.12-0.65,2.94-0.64,4.07,0.01
		C74.1,207.42,74.1,208.47,72.98,209.12z"/>
	<path class="st23" d="M91.14,183.89c0,1.29-0.91,1.81-2.04,1.16c-1.13-0.65-2.04-2.23-2.04-3.52c0-1.29,0.91-1.81,2.04-1.16
		C90.22,181.03,91.14,182.6,91.14,183.89z"/>
	<path class="st23" d="M91.15,169.13c0,1.29-0.91,1.81-2.04,1.16c-1.13-0.65-2.04-2.23-2.04-3.52c0-1.29,0.91-1.81,2.04-1.16
		C90.23,166.26,91.15,167.84,91.15,169.13z"/>
	<path class="st23" d="M91.15,140.46c0,1.29-0.91,1.81-2.04,1.16c-1.13-0.65-2.04-2.23-2.04-3.52s0.91-1.81,2.04-1.16
		C90.23,137.59,91.15,139.17,91.15,140.46z"/>
	<path class="st23" d="M99.53,97.59c0,1.29-0.91,1.81-2.04,1.16c-1.13-0.65-2.04-2.23-2.04-3.52c0-1.29,0.91-1.81,2.04-1.16
		C98.62,94.72,99.53,96.3,99.53,97.59z"/>
	<path class="st23" d="M117.9,140.72c0,1.29-0.91,2.87-2.04,3.52c-1.13,0.65-2.04,0.13-2.04-1.16s0.91-2.87,2.04-3.52
		C116.99,138.91,117.9,139.43,117.9,140.72z"/>
	<path class="st23" d="M117.65,150.98c0,1.29-0.91,2.87-2.04,3.52c-1.13,0.65-2.04,0.13-2.04-1.16s0.91-2.87,2.04-3.52
		C116.74,149.16,117.65,149.68,117.65,150.98z"/>
	
		<ellipse transform="matrix(0.5047 -0.8633 0.8633 0.5047 -34.3154 152.9227)" class="st23" cx="116.11" cy="106.37" rx="2.88" ry="1.66"/>
	<path class="st23" d="M108.82,75.24c0,1.29-0.91,2.87-2.04,3.52c-1.13,0.65-2.04,0.13-2.04-1.16c0-1.29,0.91-2.87,2.04-3.52
		C107.91,73.43,108.82,73.95,108.82,75.24z"/>
	<linearGradient id="SVGID_41_" gradientUnits="userSpaceOnUse" x1="164.9773" y1="45.2382" x2="120.8338" y2="110.3311">
		<stop  offset="0.0152" style="stop-color:#FFA98C"/>
		<stop  offset="0.0748" style="stop-color:#C46AA7"/>
		<stop  offset="0.1334" style="stop-color:#9033C0"/>
		<stop  offset="0.1616" style="stop-color:#7C1DC9"/>
		<stop  offset="0.3203" style="stop-color:#6E41D2"/>
		<stop  offset="0.67" style="stop-color:#4C9BE8"/>
		<stop  offset="1" style="stop-color:#2AF6FF"/>
	</linearGradient>
	<polygon class="st40" points="116.14,107.01 115.34,106.42 129.77,87.06 129.87,87 150.66,76.42 160.05,42.28 161.01,42.55 
		151.51,77.11 151.31,77.21 130.43,87.84 	"/>
	<linearGradient id="SVGID_42_" gradientUnits="userSpaceOnUse" x1="129.413" y1="35.2722" x2="107.9648" y2="77.4204">
		<stop  offset="0.0152" style="stop-color:#FFA98C"/>
		<stop  offset="0.0748" style="stop-color:#C46AA7"/>
		<stop  offset="0.1334" style="stop-color:#9033C0"/>
		<stop  offset="0.1616" style="stop-color:#7C1DC9"/>
		<stop  offset="0.3203" style="stop-color:#6E41D2"/>
		<stop  offset="0.67" style="stop-color:#4C9BE8"/>
		<stop  offset="1" style="stop-color:#2AF6FF"/>
	</linearGradient>
	<polygon class="st41" points="106.44,77.32 105.65,76.71 120.8,57.03 126.67,33.57 127.64,33.81 121.72,57.48 121.66,57.56 	"/>
	<linearGradient id="SVGID_43_" gradientUnits="userSpaceOnUse" x1="169.0733" y1="98.4255" x2="113.042" y2="139.6592">
		<stop  offset="0.0152" style="stop-color:#FFA98C"/>
		<stop  offset="0.0748" style="stop-color:#C46AA7"/>
		<stop  offset="0.1334" style="stop-color:#9033C0"/>
		<stop  offset="0.1616" style="stop-color:#7C1DC9"/>
		<stop  offset="0.3203" style="stop-color:#6E41D2"/>
		<stop  offset="0.67" style="stop-color:#4C9BE8"/>
		<stop  offset="1" style="stop-color:#2AF6FF"/>
	</linearGradient>
	<polygon class="st42" points="115.28,143.47 114.48,142.87 130.75,121.17 130.86,121.12 170.74,101.11 171.19,102.01 
		131.41,121.96 	"/>
	<linearGradient id="SVGID_44_" gradientUnits="userSpaceOnUse" x1="69.2197" y1="128.7988" x2="93.4113" y2="163.7146">
		<stop  offset="0.0152" style="stop-color:#FFA98C"/>
		<stop  offset="0.0748" style="stop-color:#C46AA7"/>
		<stop  offset="0.1334" style="stop-color:#9033C0"/>
		<stop  offset="0.1616" style="stop-color:#7C1DC9"/>
		<stop  offset="0.3203" style="stop-color:#6E41D2"/>
		<stop  offset="0.67" style="stop-color:#4C9BE8"/>
		<stop  offset="1" style="stop-color:#2AF6FF"/>
	</linearGradient>
	<polygon class="st43" points="89.85,167.34 88.85,167.34 88.85,151.99 83.52,141.07 65.03,132.8 65.44,131.89 84.26,140.31 
		89.85,151.76 	"/>
	<linearGradient id="SVGID_45_" gradientUnits="userSpaceOnUse" x1="104.04" y1="20.7162" x2="104.04" y2="64.447">
		<stop  offset="0.0152" style="stop-color:#FFA98C"/>
		<stop  offset="0.0748" style="stop-color:#C46AA7"/>
		<stop  offset="0.1334" style="stop-color:#9033C0"/>
		<stop  offset="0.1616" style="stop-color:#7C1DC9"/>
		<stop  offset="0.3203" style="stop-color:#6E41D2"/>
		<stop  offset="0.67" style="stop-color:#4C9BE8"/>
		<stop  offset="1" style="stop-color:#2AF6FF"/>
	</linearGradient>
	<rect x="103.54" y="21.09" class="st44" width="1" height="41.63"/>
	<g>
		<path class="st1" d="M152.64,129.76c-0.85,0-1.56,0.2-2.14,0.61c-0.34,0.24-0.66,0.59-0.93,1.03c-0.28,0.46-0.45,0.9-0.5,1.31
			h5.17l-0.21,1.02h-5.09c-0.01,0.11-0.01,0.21-0.01,0.3c0,0.39,0,0.62,0.01,0.7h4.89l-0.21,1.02h-4.51
			c0.21,1.16,0.72,1.98,1.53,2.47c0.58,0.35,1.21,0.52,1.89,0.52c0.95,0,1.68-0.25,2.21-0.74v1.56c-0.63,0.29-1.33,0.44-2.09,0.44
			c-2.29,0-3.83-0.95-4.63-2.85c-0.16-0.38-0.3-0.85-0.42-1.4h-1.16l0.21-1.02h0.8c-0.02-0.21-0.02-0.44-0.02-0.69
			c0-0.1,0-0.2,0.01-0.31h-0.99l0.21-1.02h0.88c0.31-1.65,1.13-2.83,2.45-3.55c0.81-0.45,1.71-0.67,2.69-0.67
			c0.94,0,1.73,0.21,2.37,0.61l-0.3,1.41C154.12,130.01,153.42,129.76,152.64,129.76z"/>
		<path class="st1" d="M179,90.04v1.52h1.51v-1.52h1.19v1.61c0.32,0.06,0.61,0.14,0.85,0.25c0.52,0.22,0.92,0.57,1.21,1.04
			c0.29,0.47,0.44,0.96,0.44,1.47c0,0.48-0.13,0.92-0.39,1.34c-0.26,0.42-0.65,0.76-1.17,1.02c0.67,0.2,1.19,0.53,1.55,1.01
			c0.36,0.48,0.54,1.04,0.54,1.68c0,0.52-0.11,1-0.33,1.45c-0.22,0.45-0.49,0.79-0.82,1.04c-0.32,0.24-0.73,0.43-1.22,0.55
			c-0.2,0.05-0.42,0.09-0.67,0.12v1.58h-1.19v-1.52H179v1.52h-1.19v-1.52h-1.47V91.56h1.47v-1.52H179z M177.81,96.23h2.4
			c0.65,0,1.12-0.04,1.4-0.13c0.37-0.11,0.66-0.3,0.85-0.55c0.19-0.26,0.28-0.58,0.28-0.97c0-0.37-0.09-0.69-0.27-0.97
			c-0.18-0.28-0.43-0.47-0.76-0.58c-0.33-0.1-0.89-0.16-1.69-0.16h-2.22V96.23z M177.81,101.37h2.77c0.48,0,0.81-0.02,1-0.05
			c0.34-0.06,0.62-0.16,0.85-0.3c0.23-0.14,0.41-0.35,0.56-0.62c0.15-0.27,0.22-0.58,0.22-0.94c0-0.41-0.11-0.78-0.32-1.08
			c-0.21-0.31-0.51-0.52-0.88-0.64c-0.38-0.12-0.92-0.19-1.63-0.19h-2.57V101.37z"/>
		<path class="st1" d="M173.74,58.42h2.39v1.12h-2.15c0.1,0.22,0.14,0.45,0.14,0.67c0,0.44-0.1,0.91-0.32,1.4
			c-0.21,0.49-0.55,0.99-1.04,1.5c0.4-0.11,0.76-0.17,1.09-0.17c0.42,0,0.89,0.06,1.42,0.19c0.87,0.21,1.46,0.31,1.77,0.31
			c0.37,0,0.86-0.14,1.46-0.42l0.44,1.25c-0.47,0.2-0.83,0.33-1.08,0.39c-0.26,0.06-0.51,0.09-0.76,0.09
			c-0.21,0-0.43-0.02-0.64-0.06c-0.14-0.03-0.46-0.12-0.98-0.28c-0.52-0.16-0.85-0.25-1.01-0.28c-0.24-0.04-0.48-0.06-0.71-0.06
			c-0.36,0-0.75,0.06-1.16,0.19c-0.41,0.13-0.79,0.3-1.13,0.52l-0.52-1.31c0.49-0.27,0.9-0.65,1.24-1.15
			c0.34-0.5,0.51-1.11,0.51-1.82c0-0.31-0.04-0.62-0.13-0.94h-1.49v-1.12h1.17c-0.17-0.57-0.27-0.98-0.32-1.24
			c-0.05-0.26-0.07-0.51-0.07-0.76c0-1.05,0.39-1.87,1.17-2.47c0.63-0.47,1.39-0.71,2.28-0.71c0.92,0,1.67,0.25,2.26,0.75
			c0.59,0.5,0.96,1.21,1.1,2.12l-1.36,0.2c-0.08-0.61-0.3-1.08-0.68-1.43c-0.38-0.35-0.83-0.52-1.35-0.52
			c-0.56,0-1.03,0.18-1.4,0.54c-0.37,0.36-0.56,0.8-0.56,1.31C173.31,56.78,173.45,57.52,173.74,58.42z"/>
		<path class="st1" d="M138.48,62.04v-1.37c-0.68-0.09-1.24-0.24-1.67-0.46c-0.43-0.22-0.8-0.58-1.11-1.07
			c-0.31-0.49-0.49-1.09-0.54-1.8l1.37-0.26c0.11,0.73,0.29,1.27,0.56,1.62c0.38,0.49,0.84,0.76,1.38,0.81v-4.35
			c-0.56-0.11-1.14-0.32-1.72-0.65c-0.43-0.24-0.77-0.58-1-1.01c-0.24-0.43-0.35-0.92-0.35-1.46c0-0.97,0.34-1.76,1.03-2.36
			c0.46-0.4,1.14-0.65,2.05-0.74v-0.65h0.8v0.65c0.79,0.08,1.42,0.31,1.89,0.7c0.6,0.5,0.96,1.18,1.08,2.04l-1.41,0.21
			c-0.08-0.54-0.25-0.95-0.5-1.23c-0.26-0.29-0.61-0.47-1.05-0.56v3.94c0.69,0.17,1.14,0.31,1.37,0.4c0.42,0.19,0.77,0.41,1.04,0.68
			c0.27,0.27,0.47,0.59,0.62,0.96c0.14,0.37,0.22,0.77,0.22,1.2c0,0.95-0.3,1.73-0.9,2.37c-0.6,0.63-1.38,0.97-2.34,1.02v1.38
			H138.48z M138.48,50.08c-0.53,0.08-0.95,0.29-1.26,0.64c-0.31,0.34-0.46,0.75-0.46,1.22c0,0.47,0.13,0.85,0.39,1.17
			c0.26,0.31,0.7,0.56,1.32,0.75V50.08z M139.29,59.52c0.53-0.07,0.97-0.3,1.32-0.69c0.35-0.39,0.52-0.88,0.52-1.46
			c0-0.5-0.12-0.89-0.37-1.19c-0.25-0.3-0.73-0.57-1.47-0.81V59.52z"/>
		<path class="st1" d="M129.15,29.95v-2.47H126v-1.05h3.15v-1.08H126v-1.12h2.59l-3.08-5.39h1.52l2.2,3.91
			c0.25,0.45,0.44,0.83,0.58,1.17c0.12-0.27,0.32-0.68,0.62-1.24l2.08-3.85h1.62l-3.07,5.39h2.59v1.12h-3.13v1.08h3.13v1.05h-3.13
			v2.47H129.15z"/>
		<path class="st1" d="M27.22,62.54c-0.85,0-1.56,0.2-2.14,0.61c-0.34,0.24-0.66,0.59-0.93,1.03c-0.28,0.46-0.45,0.9-0.5,1.31h5.17
			l-0.21,1.02h-5.09c0,0.11-0.01,0.21-0.01,0.3c0,0.39,0,0.62,0.01,0.7h4.89l-0.21,1.02h-4.51c0.21,1.16,0.72,1.98,1.53,2.47
			c0.58,0.35,1.21,0.52,1.89,0.52c0.95,0,1.68-0.25,2.21-0.74v1.56c-0.63,0.29-1.33,0.44-2.09,0.44c-2.29,0-3.83-0.95-4.63-2.85
			c-0.16-0.38-0.3-0.85-0.42-1.4h-1.16l0.21-1.02h0.8C22.01,67.3,22,67.07,22,66.83c0-0.1,0-0.2,0.01-0.31h-0.99l0.21-1.02h0.88
			c0.31-1.65,1.13-2.83,2.45-3.55c0.81-0.45,1.71-0.67,2.69-0.67c0.94,0,1.73,0.21,2.37,0.61l-0.3,1.41
			C28.71,62.8,28.01,62.54,27.22,62.54z"/>
		<path class="st1" d="M103.38,3.67v1.52h1.51V3.67h1.19v1.61c0.32,0.06,0.61,0.14,0.85,0.25c0.52,0.22,0.92,0.57,1.21,1.04
			c0.29,0.47,0.44,0.96,0.44,1.47c0,0.48-0.13,0.92-0.39,1.34c-0.26,0.42-0.65,0.76-1.17,1.02c0.67,0.2,1.19,0.53,1.55,1.01
			c0.36,0.48,0.54,1.04,0.54,1.68c0,0.52-0.11,1-0.33,1.45c-0.22,0.45-0.49,0.79-0.82,1.04c-0.32,0.24-0.73,0.43-1.22,0.55
			c-0.2,0.05-0.42,0.09-0.67,0.12v1.58h-1.19v-1.52h-1.51v1.52h-1.19v-1.52h-1.47V5.19h1.47V3.67H103.38z M102.18,9.86h2.4
			c0.65,0,1.12-0.04,1.4-0.13c0.37-0.11,0.66-0.3,0.85-0.55c0.19-0.26,0.28-0.58,0.28-0.97c0-0.37-0.09-0.69-0.27-0.97
			c-0.18-0.28-0.43-0.47-0.76-0.58c-0.33-0.1-0.89-0.16-1.69-0.16h-2.22V9.86z M102.18,15h2.77c0.48,0,0.81-0.02,1-0.05
			c0.34-0.06,0.62-0.16,0.85-0.3c0.23-0.14,0.41-0.35,0.56-0.62c0.15-0.27,0.22-0.58,0.22-0.94c0-0.41-0.11-0.78-0.32-1.08
			c-0.21-0.31-0.51-0.52-0.88-0.64c-0.38-0.12-0.92-0.19-1.63-0.19h-2.57V15z"/>
		<path class="st1" d="M55.1,43.28h2.39v1.12h-2.15c0.1,0.22,0.14,0.45,0.14,0.67c0,0.44-0.1,0.91-0.32,1.4
			c-0.21,0.49-0.55,0.99-1.04,1.5c0.4-0.11,0.76-0.17,1.09-0.17c0.42,0,0.89,0.06,1.42,0.19c0.87,0.21,1.46,0.31,1.77,0.31
			c0.37,0,0.86-0.14,1.46-0.42l0.44,1.25c-0.47,0.2-0.83,0.33-1.08,0.39c-0.26,0.06-0.51,0.09-0.76,0.09
			c-0.21,0-0.43-0.02-0.65-0.06c-0.14-0.03-0.46-0.12-0.98-0.28c-0.52-0.16-0.85-0.25-1.01-0.28c-0.24-0.04-0.48-0.06-0.71-0.06
			c-0.36,0-0.75,0.06-1.16,0.19c-0.41,0.13-0.79,0.3-1.13,0.52l-0.52-1.31c0.49-0.27,0.9-0.65,1.24-1.15
			c0.34-0.5,0.51-1.11,0.51-1.82c0-0.31-0.04-0.62-0.13-0.94h-1.49v-1.12h1.17c-0.17-0.57-0.27-0.98-0.32-1.24
			c-0.05-0.26-0.07-0.51-0.07-0.76c0-1.05,0.39-1.87,1.17-2.47c0.63-0.47,1.39-0.71,2.28-0.71c0.92,0,1.67,0.25,2.26,0.75
			c0.59,0.5,0.96,1.21,1.1,2.12l-1.36,0.2c-0.08-0.61-0.3-1.08-0.68-1.43c-0.38-0.35-0.83-0.52-1.35-0.52
			c-0.56,0-1.03,0.18-1.4,0.54c-0.37,0.36-0.56,0.8-0.56,1.31C54.67,41.65,54.81,42.38,55.1,43.28z"/>
		<path class="st1" d="M28.9,107.11v-1.37c-0.68-0.09-1.24-0.24-1.67-0.46c-0.43-0.22-0.8-0.58-1.11-1.07
			c-0.31-0.49-0.49-1.09-0.54-1.8l1.37-0.26c0.11,0.73,0.29,1.27,0.56,1.62c0.38,0.49,0.84,0.76,1.38,0.81v-4.35
			c-0.56-0.11-1.14-0.32-1.72-0.65c-0.43-0.24-0.77-0.58-1-1.01c-0.24-0.43-0.35-0.92-0.35-1.46c0-0.97,0.34-1.76,1.03-2.36
			c0.46-0.4,1.14-0.65,2.05-0.74v-0.65h0.8v0.65c0.79,0.08,1.42,0.31,1.89,0.7c0.6,0.5,0.96,1.18,1.08,2.04l-1.41,0.21
			c-0.08-0.54-0.25-0.95-0.5-1.23c-0.26-0.29-0.61-0.47-1.05-0.56v3.94c0.69,0.17,1.14,0.31,1.37,0.4c0.42,0.19,0.77,0.41,1.04,0.68
			c0.27,0.27,0.47,0.59,0.62,0.96c0.14,0.37,0.22,0.77,0.22,1.2c0,0.95-0.3,1.73-0.9,2.37c-0.6,0.63-1.38,0.97-2.34,1.02v1.38H28.9z
			 M28.9,95.16c-0.53,0.08-0.95,0.29-1.26,0.64c-0.31,0.34-0.46,0.75-0.46,1.22c0,0.47,0.13,0.85,0.39,1.17
			c0.26,0.31,0.7,0.56,1.32,0.75V95.16z M29.7,104.59c0.53-0.07,0.97-0.3,1.32-0.69c0.35-0.39,0.52-0.88,0.52-1.46
			c0-0.5-0.12-0.89-0.37-1.19c-0.25-0.3-0.73-0.57-1.47-0.81V104.59z"/>
		<g>
			<path class="st1" d="M157.02,37.46v-1.11l5.13-5.89c-0.58,0.03-1.09,0.05-1.54,0.05h-3.28V29.4h6.58v0.9l-4.36,5.11l-0.84,0.93
				c0.61-0.05,1.19-0.07,1.72-0.07h3.72v1.18H157.02z"/>
			<path class="st1" d="M165.5,33.1l-0.99,0.83v-1.2l0.99-0.83v-5.57h1.36v4.41l1.02-0.87v1.19l-1.02,0.87v5.51h-1.36V33.1z"/>
		</g>
		<path class="st1" d="M86.49,32v1.09h4.45v1.05h-4.45v2.8h-1.47v-2.8h-0.76V33.1h0.76V32h-0.76v-1.27h0.76v-4.91h3.48
			c1,0,1.75,0.1,2.26,0.3c0.52,0.2,0.93,0.55,1.24,1.05c0.31,0.51,0.46,1.06,0.46,1.68c0,0.62-0.11,1.13-0.34,1.53
			c-0.23,0.4-0.53,0.73-0.91,0.97c-0.38,0.24-0.81,0.41-1.3,0.5C89.43,31.95,88.92,32,88.4,32H86.49z M88.4,30.73
			c0.34,0,0.66-0.03,0.97-0.08c0.31-0.05,0.58-0.15,0.81-0.29c0.23-0.14,0.42-0.33,0.55-0.57c0.14-0.24,0.2-0.55,0.2-0.93
			c0-0.33-0.06-0.61-0.19-0.83c-0.12-0.23-0.29-0.41-0.51-0.56c-0.21-0.14-0.47-0.25-0.75-0.31c-0.29-0.07-0.6-0.1-0.93-0.1h-2.07
			v3.68H88.4z"/>
		<path class="st1" d="M62.52,74.68h-6.5c-0.05,0.17-0.07,0.37-0.07,0.6c0,0.58,0.17,1.06,0.52,1.46c0.4,0.46,0.98,0.69,1.72,0.69
			c0.71,0,1.28-0.22,1.69-0.66c0.34-0.35,0.56-0.82,0.64-1.39l1.37,0.26c-0.08,0.92-0.45,1.63-1.12,2.16
			c-0.66,0.52-1.52,0.79-2.58,0.79c-0.52,0-1.04-0.09-1.55-0.28c-0.51-0.19-0.92-0.44-1.21-0.75c-0.6-0.63-0.9-1.42-0.9-2.37
			c0-0.16,0.01-0.33,0.04-0.51h-0.48v-1.27h0.96c0.31-0.45,0.76-0.8,1.35-1.05c0.13-0.06,0.65-0.21,1.56-0.46h-3.88v-1.27h6.05
			c0.1-0.22,0.14-0.47,0.14-0.76c0-0.48-0.15-0.88-0.46-1.22c-0.36-0.4-0.9-0.61-1.63-0.61c-0.66,0-1.16,0.18-1.48,0.55
			c-0.26,0.29-0.43,0.7-0.51,1.24l-1.41-0.21c0.12-0.86,0.48-1.54,1.08-2.04c0.56-0.47,1.29-0.7,2.19-0.7
			c1.13,0,1.98,0.25,2.55,0.74c0.69,0.6,1.03,1.39,1.03,2.36c0,0.23-0.02,0.45-0.06,0.65h0.91v1.27H61
			c-0.19,0.22-0.42,0.4-0.68,0.55c-0.39,0.22-1.23,0.5-2.53,0.84c-0.15,0.04-0.28,0.08-0.41,0.13h5.14V74.68z"/>
		<path class="st1" d="M50.91,133.64v-11.12h1.37v6.34l3.23-3.28h1.77l-3.08,2.99l3.39,5.07H55.9l-2.66-4.12l-0.96,0.93v3.19H50.91z
			"/>
		<path class="st1" d="M58.65,133.64v-8.06h1.23v1.22c0.31-0.57,0.6-0.95,0.87-1.13c0.27-0.18,0.56-0.27,0.88-0.27
			c0.46,0,0.93,0.15,1.4,0.44l-0.47,1.27c-0.33-0.2-0.67-0.3-1-0.3c-0.3,0-0.57,0.09-0.8,0.27c-0.24,0.18-0.41,0.43-0.51,0.75
			c-0.15,0.49-0.23,1.02-0.23,1.59v4.22H58.65z"/>
	</g>
</g>
</svg>
