<?xml version="1.0" encoding="utf-8"?>
<!-- Generator: Adobe Illustrator 25.0.0, SVG Export Plug-In . SVG Version: 6.00 Build 0)  -->
<svg version="1.1" id="svg318" xmlns="http://www.w3.org/2000/svg" xmlns:xlink="http://www.w3.org/1999/xlink" x="0px" y="0px"
	 viewBox="0 0 1200 800" style="enable-background:new 0 0 1200 800;" xml:space="preserve">
<style type="text/css">
	.st0{fill:none;}
	.st1{fill:#B7B7DA;}
</style>
<path class="st0" d="z"/>
<g id="g316" transform="translate(-64 -64.45)">
	<path id="path314" class="st1" d="M572.92,1188.2l-45.16,45.19l-45.16-45.19l45.16-45.16L572.92,1188.2z M682.61,1078.54
		l77.41,77.41l45.19-45.16L682.61,988.2l-122.59,122.59l45.19,45.16L682.61,1078.54z M837.45,1143.04l-45.16,45.16l45.16,45.19
		l45.16-45.19L837.45,1143.04z M682.61,1297.89l-77.41-77.41l-45.19,45.16l122.59,122.56l122.59-122.56l-45.19-45.16L682.61,1297.89
		z M682.61,1233.39l45.16-45.19l-45.16-45.16l-45.16,45.16L682.61,1233.39z M231.82,1605.98v-0.44c0-23.59-12.5-35.38-32.84-43.16
		c12.5-7,23.06-18.03,23.06-37.84v-0.5c0-27.59-22.06-45.41-57.94-45.41h-81.5v175.56h83.5
		C205.73,1654.14,231.82,1638.07,231.82,1605.98z M183.67,1530.98c0,13.06-10.78,18.56-27.84,18.56h-35.72v-37.13h38.12
		c16.28,0,25.31,6.53,25.31,18.06L183.67,1530.98z M193.45,1601.2c0,13.06-10.28,19.06-27.34,19.06h-46v-38.62h44.75
		c19.81,0,28.59,7.28,28.59,19.06L193.45,1601.2z M312.82,1654.14v-175.56H274.2v175.56H312.82z M520.42,1654.14v-175.56h-38.12
		v108.22l-82.25-108.09h-35.62v175.56h38.12v-111.75l85.03,111.62L520.42,1654.14z M734.36,1654.14l-75.25-176.72h-35.59
		l-75.28,176.72h39.38l16.06-39.38h74.25l16.06,39.38L734.36,1654.14z M664.14,1580.54h-46.66l23.31-56.91L664.14,1580.54z
		 M918.45,1654.04v-175.47h-38.13v108.22l-82.09-108.22h-35.62v175.56h38.13v-111.62l85,111.62L918.45,1654.04z M1117.82,1625.7
		l-24.56-25c-13.81,12.5-26.09,20.56-46.16,20.56c-30.09,0-50.91-25-50.91-55.16v-0.5c0-30.09,21.31-54.69,50.91-54.69
		c17.56,0,31.25,7.53,44.91,19.81l24.56-28.34c-16.31-16.03-36.12-27.06-69.22-27.06c-53.91,0-91.53,40.88-91.53,90.78v0.5
		c0,50.41,38.38,90.28,90.03,90.28c33.84,0.25,53.91-11.78,71.97-31.09V1625.7z M1282.61,1654.14v-34.38h-95.31v-36.88h82.81v-34.38
		h-82.81v-35.56h94.06v-34.38h-132.41v175.56H1282.61z"/>
</g>
<path class="st0" d="z"/>
<g>
	<g>
		<path class="st1" d="M1023.02,328.97c-10.78-14.27-24.77-23.99-42.3-28.48c-25.72-6.58-48.43,0.47-70.45,16.78v-88.7
			c0-17.36,0-16.78-17.58-17.3c-8.94-0.28-10.67,2.59-10.62,11.01c0.36,72.06,0.42,144.15-0.06,216.24
			c-0.08,10.06,2.34,12.96,12.43,12.32c15.27-0.95,15.33-0.22,16.41-15.66c47.21,25.61,82.29,22.74,108.76-8.3
			C1043.73,398.58,1045.21,358.29,1023.02,328.97z M960.63,425.84c-27.73,0.14-50.47-22.07-50.94-49.74
			c-0.47-27.59,21.87-50.24,49.82-50.52c28.03-0.25,50.41,21.65,50.63,49.55C1010.34,403.24,988.41,425.67,960.63,425.84z"/>
		<path class="st1" d="M628.69,297.01c-43.28,0-78.33,35.42-78.19,79c0.17,43.44,34.5,77.22,78.39,77.11
			c43.05-0.11,78.03-35.06,78-78C706.88,332.37,671.49,297.04,628.69,297.01z M627.83,425.5c-27.2-0.2-49.52-22.82-49.41-50.05
			c0.11-27.56,23.02-49.99,50.8-49.77c27.17,0.2,49.32,22.74,49.27,50.1C678.43,403.49,655.8,425.7,627.83,425.5z"/>
		<path class="st1" d="M866.58,448.63c-25.87,8.18-42.82-2.75-56.1-23.4c-5.95-9.25-14.41-16.87-21.08-25.71
			c-4.26-5.65-6.85-5.98-11.43-0.23c-11.45,14.37-23.77,28.05-35.18,42.45c-4.93,6.23-10.08,9.55-18.33,8.71
			c-7.47-0.76-15.08-0.16-22.56-0.16c-1.05-4.09,1.85-5.61,3.46-7.56c18.07-21.95,36.07-43.96,54.5-65.6
			c4.23-4.96,4.25-7.87-0.07-12.86c-17.7-20.4-34.87-41.25-53.91-63.94c13.03,0,24.16-0.16,35.28,0.09
			c3.47,0.08,4.88,3.63,6.84,5.95c10.29,12.19,20.65,24.33,30.64,36.76c3.59,4.47,5.77,4.32,9.31-0.04
			c9.62-11.84,20.03-23.06,29.32-35.15c4.8-6.24,10.02-8.57,17.67-7.99c7.93,0.6,15.93,0.13,23.68,0.13
			c1.82,4.13-1.46,5.5-3.04,7.41c-14.84,17.88-29.44,35.99-44.89,53.33c-6.37,7.15-7.24,11.7-0.36,19.4
			c17.54,19.65,34.01,40.26,50.77,60.6C863.17,443.38,866.41,445.36,866.58,448.63z"/>
		<path class="st1" d="M553.89,211.41c0.15,1.07,0.3,1.43,0.23,1.75c-5.41,24.21-5.41,24.21-30.36,25.17
			c-14.18,0.54-23.06,9.5-23.31,23.81c-0.18,10.04,0.32,20.1-0.16,30.12c-0.32,6.51,1.24,9.26,8.44,8.82
			c10.38-0.64,20.83,0.05,31.24-0.25c5.06-0.15,6.29,1.73,6.51,6.58c0.94,20.53,1.12,20.34-19.45,20.6
			c-8.58,0.11-19.76-3.79-25.03,1.59c-5.22,5.33-1.45,16.44-1.5,25c-0.19,28.74-0.25,57.49,0.06,86.22
			c0.07,6.72-0.99,9.79-8.87,9.68c-19.58-0.28-19.58,0.14-19.58-19.69c0-55.41-0.02-110.81,0.01-166.22
			c0.02-33.3,19.79-53.16,52.86-53.18C534.64,211.41,544.32,211.41,553.89,211.41z"/>
		<path class="st1" d="M1118.67,324.97c0-25.63,0.18-51.27-0.13-76.9c-0.07-6.25,1.68-8.29,8.16-8.37
			c20.69-0.24,20.68-0.52,20.68,20.38c0,11.08,0.28,22.18-0.12,33.25c-0.21,5.72,1.27,8,7.43,7.72c10.4-0.48,20.84,0.08,31.25-0.22
			c5.06-0.15,7.21,0.83,7.38,6.67c0.59,20.44,0.87,20.23-19.46,20.52c-8.56,0.12-19.76-3.86-24.97,1.68
			c-5.11,5.43-1.3,16.49-1.45,25.06c-0.24,13.85-0.13,27.71-0.05,41.57c0.1,16.96,9.36,26.41,26.15,26.86
			c0.69,0.02,1.39,0,2.08,0.01c20.77,0.17,20.56,0.21,24.11,20.91c0.84,4.93-0.29,6.14-4.91,5.97c-10.75-0.39-21.6,0.29-32.24-0.95
			c-26.45-3.07-43.65-22.66-43.88-49.33C1118.51,374.85,1118.67,349.91,1118.67,324.97z"/>
		<path class="st1" d="M1091.65,375.77c0,22.14-0.2,44.28,0.13,66.42c0.09,6.27-1.71,8.23-8.16,8.27
			c-19.92,0.1-19.92,0.39-19.92-19.09c0-40.48,0.18-80.95-0.17-121.43c-0.06-7.19,1.7-9.36,9.11-9.22
			c19.01,0.38,19.02-0.01,19.02,19C1091.65,338.41,1091.65,357.09,1091.65,375.77z"/>
		<path class="st1" d="M1120.95,502.75c-3.26-0.39-8.61-1.89-9.61,1.28c-1.98,6.33-3.98,3.09-6.94,1.42
			c-11.9-6.66-24.94-5.38-34.78,3.2c-9.34,8.14-12.85,22.24-8.53,34.16c7.33,20.37,26.95,25.83,48.43,13.46
			c1.78,14.41-6.6,22.85-20.4,20.37c-4.1-0.72-8.39-1.67-11.12-5.16c-4.46-5.71-8.36-1.31-11.43,1.06
			c-4.51,3.46,0.22,6.24,2.31,8.03c11.12,9.59,24.16,9.81,37.23,5.43c12.48-4.15,17.44-14.21,17.64-26.67
			c0.22-16.64,0.11-33.24,0-49.88C1123.76,506.96,1124.96,503.25,1120.95,502.75z M1091.18,550.84
			c-10.84-0.17-19.06-8.69-18.61-19.28c0.45-10.06,8.86-18.17,18.95-18.28c10.45-0.08,19.03,8.55,18.98,19.14
			C1110.44,543.35,1102.39,551.01,1091.18,550.84z"/>
		<path class="st1" d="M663.38,521.06c0-11.42,0.24-22.85-0.1-34.26c-0.17-5.54,1.02-8.11,7.32-7.87
			c12.13,0.46,24.29,0.35,36.43,0.04c5.4-0.14,7.28,1.61,7.22,7.09c-0.06,5.19-2.16,6.49-6.87,6.3c-6.93-0.27-13.96,0.59-20.8-0.23
			c-9.09-1.09-9.36,3.93-8.93,10.46c0.39,5.89-2,13.16,8.71,11.78c5.8-0.75,11.79,0.09,17.68-0.2c5.08-0.25,7.42,1.07,7.46,6.83
			c0.05,6.17-3.06,6.65-7.77,6.45c-4.85-0.21-9.81,0.56-14.55-0.17c-9.99-1.53-11.86,2.9-11.8,11.95
			c0.05,8.44,2.03,11.9,10.91,10.89c6.51-0.74,13.18,0.12,19.76-0.22c5.43-0.29,7.21,1.68,7.18,7.13c-0.03,5.57-2.83,6.06-7.18,6.01
			c-12.49-0.14-25-0.39-37.47,0.09c-6.33,0.24-7.47-2.31-7.3-7.85C663.62,543.91,663.38,532.48,663.38,521.06z"/>
		<path class="st1" d="M979.47,509.07c-0.06-2.54,1-6.13-3.18-6.38c-3.32-0.2-8.94-1.7-9.61,0.98c-1.78,7.41-4.29,3.12-7.19,1.48
			c-12.9-7.22-28.03-4.35-37.4,6.99c-9.61,11.68-9.42,30.57,0.42,42.08c9.73,11.34,24.38,13.79,37.45,6.21
			c2.42-1.42,4.6-6.02,6.58,1c0.95,3.4,6.13,1.45,9.36,1.42c4.15-0.06,3.51-3.57,3.54-6.16c0.11-7.91,0.06-15.86,0.06-23.8
			C979.5,524.96,979.58,517.02,979.47,509.07z M946.73,552.13c-10.73-0.08-18.67-8.42-18.53-19.42c0.11-10.9,8.39-19.17,19.03-19.12
			c10.56,0.06,18.67,8.58,18.59,19.53C965.7,543.93,957.4,552.24,946.73,552.13z"/>
		<path class="st1" d="M863.12,508.34c10.73-7.97,20.47-9.64,30.66-3.91c9.92,5.58,10.97,15.27,11.05,25.23
			c0.07,9.01-0.22,18.02,0.1,27.02c0.18,5.15-1.93,6.53-6.74,6.47c-4.53-0.06-7.13-0.84-6.99-6.23c0.28-10.04,0.05-20.09-0.07-30.14
			c-0.1-8.31-4.47-13.17-12.72-13.35c-8.41-0.18-14.2,4.31-14.85,12.82c-0.76,9.99-0.57,20.08-0.35,30.12
			c0.11,5.01-1.67,6.69-6.64,6.54c-4.4-0.13-7.14-0.59-7.09-6.1c0.22-23.9,0.2-47.81,0.01-71.72c-0.04-5.06,1.93-6.67,6.75-6.62
			c4.57,0.05,7.2,1.09,6.96,6.41C862.87,492.12,863.12,499.38,863.12,508.34z"/>
		<path class="st1" d="M1154.75,538.17c5.88,0.2,11.79,0.03,17.67,0.03c5.91,0,11.79-0.28,17.67,0.08c5.32,0.31,7.41-1.42,7.22-6.99
			c-0.47-13.46-9.67-25.64-22.54-29.06c-13.96-3.73-28.84,2.4-35.67,14.66c-7.13,12.79-4.79,29.29,5.52,39.12
			c10.76,10.28,28.56,11.98,41.3,3.62c3.09-2.03,9-4.21,6.21-8.69c-2.4-3.82-6.85-6.49-13.04-1.95c-9.14,6.72-22.63,3.54-27.62-4.74
			C1149.03,540.23,1149.12,537.94,1154.75,538.17z M1149.79,527.38c1.7-8.64,7.16-12.73,14.88-13.88c7.05-1.06,12.9,1.5,16.86,7.66
			c2.56,4.01,3.12,6.99-3.43,6.77c-7.61-0.25-15.22-0.03-22.82-0.08C1153.63,527.86,1151.96,527.58,1149.79,527.38z"/>
		<path class="st1" d="M994.18,532.66c0-7.61-0.1-15.21,0.03-22.82c0.11-6.54,7.06-11.02,11.35-6.58c3.6,3.73,4.53,2.76,8,0.82
			c15.73-8.82,33.51,0.23,35.15,18.31c1.05,11.66,0.16,23.49,0.44,35.24c0.12,5.04-2.64,5.49-6.56,5.46
			c-3.81-0.03-6.82-0.24-6.72-5.32c0.19-9.33,0.23-18.67-0.04-28c-0.31-10.98-4.74-16.27-13.16-16.44
			c-9.22-0.19-14.98,6.05-15.29,17.06c-0.24,8.64-0.28,17.29,0.01,25.92c0.16,4.87-1.41,6.71-6.48,6.64
			c-4.76-0.06-6.97-1.32-6.79-6.43C994.4,548.57,994.19,540.61,994.18,532.66z"/>
		<path class="st1" d="M781.63,535.14c-0.08-15.51,6.96-26.63,19.12-31.44c12.35-4.88,23.9-3.29,33.84,5.76
			c2.14,1.94,7.13,4.39,3.34,8.05c-2.94,2.84-6.36,6.9-12.16,1.64c-9.9-8.96-23.46-6.26-28.85,4.56
			c-4.07,8.18-2.12,18.26,4.58,23.63c6.63,5.32,17.82,5.89,23.82-0.67c5.72-6.25,9.91-2.05,12.85,0.98
			c3.72,3.82-1.54,6.62-3.97,8.73c-10.43,9.04-22.33,10.66-34.86,4.96C787.39,555.88,781.99,545.98,781.63,535.14z"/>
		<path class="st1" d="M779.44,561.89c-9.65,3.15-15.5,0.32-20.51-7.49c-7.82-12.2-8.76-12.23-16.83,0.11
			c-5.11,7.83-10.98,10.47-20.82,7.29c5.88-8.14,11.18-16.13,17.19-23.53c3.63-4.47,4.27-7.59,0.21-12.32
			c-5.78-6.74-10.59-14.3-15.99-21.76c16.92-6.58,19.57,8.66,27.52,16.43c8.61-6.21,10.68-23.49,28.2-16.49
			c-5.04,7.02-9.56,14.31-15.1,20.72c-4.85,5.61-4.4,9.7,0.21,15.15C769.25,546.76,774.02,554.34,779.44,561.89z"/>
		<path class="st1" d="M1077.67,240.45c10.65,0.04,18.59,8.55,18.34,19.63c-0.25,10.71-8.8,19.19-19.32,19.14
			c-10.42-0.05-19.03-8.82-19.06-19.41C1057.6,248.75,1066.25,240.4,1077.67,240.45z"/>
	</g>
	<g>
		<path class="st1" d="M197.15,203.68C88.25,203.49,0.11,290.93,0,399.28c-0.11,109.24,87.61,196.99,196.96,197.04
			c108.51,0.06,196.85-88.03,196.87-196.29C393.89,291.66,305.97,203.91,197.15,203.68z M179.6,572.77
			c-0.53,6.77-4.99,5.43-9.06,4.85C96,567,35.42,509.35,20.54,435.11c-2.48-12.29-4.4-24.55-3.96-33.52
			c0.14-90.18,67.49-168.23,152.54-180.21c4.85-0.67,9.98-1.67,10.7,5.88c0.59,6.1-2.45,7.38-7.83,8.11
			c-70.58,9.39-129.97,66.71-142.28,137.07c-12.34,70.67,25.72,144.18,91.54,176.81c16.3,8.05,33.47,13.52,51.41,16.11
			C177.9,566.11,180.02,567.34,179.6,572.77z M193.78,517.34c-27.87-28.31-66.24-38.15-100.07-55.87c-8.53-4.46-10.81-7.91-7.13-17
			c7.64-18.92,13.91-38.37,21.12-57.43c1.87-4.93,1.67-9.14,0-13.96c-6.3-18.31-12.32-36.73-18.36-55.12
			c-1.03-3.12-3.96-6.83-0.36-9.42c2.9-2.09,5.8,1.2,8.36,2.73c19.98,11.87,39.96,23.74,59.77,35.86
			c5.21,3.18,10.56,4.07,16.55,4.82c38.62,4.85,73.12-4.18,103.86-28.17c7.05-5.49,15.41-9.31,23.13-13.93
			c3.51-2.12,6.46-2.98,6.94,2.79c-1.73,5.27-3.46,10.53-5.21,15.77c-2.73,8.19-4.51,16.89-8.42,24.49
			c-10.06,19.59-7.75,38.09,1.45,57.24c5.66,11.79,8.89,24.72,13.99,36.81c3.07,7.27,0.89,10.34-5.82,13.35
			c-17.72,7.94-34.97,16.89-52.61,24.91c-17.44,7.97-34.3,16.58-47.6,30.79C200.61,518.96,197.63,521.27,193.78,517.34z
			 M230.15,577.81c-2.37,0.45-4.82,0.56-7.25,0.67c-4.04,0.25-7.61,0.22-7.66-5.6c-0.06-4.93,2.12-6.41,6.66-7.13
			c29.34-4.57,56.09-15.49,79.64-33.63c80.53-62,86.44-181.3,12.6-251.85c-25.83-24.66-55.79-40.82-91.74-44.64
			c-5.24-0.56-7.47-2.09-7.11-7.52c0.39-5.74,3.4-6.66,8.42-6.07c28.56,3.29,54.59,13.29,77.58,30.29
			c49.3,36.45,75.71,85.27,77.75,144.79C379.18,487.14,317.62,561.07,230.15,577.81z"/>
		<path class="st1" d="M262.81,381.22c-20.79,22.79-41.38,45.34-61.86,67.91c-2.81,3.09-4.85,2.76-7.61-0.11
			c-21.09-22.01-42.3-43.89-63.4-65.76C159,357.28,229.81,354.41,262.81,381.22z"/>
		<path class="st1" d="M164.52,481.73c-14.24-6.77-27.59-12.87-40.66-19.48c-8.53-4.32-21.76-5.57-24.38-13.63
			c-2.31-7.11,4.63-17.33,7.72-26.08c3.34-9.45,6.97-18.81,10.42-28.12C152.37,412.99,158.84,446.15,164.52,481.73z"/>
		<path class="st1" d="M292.87,451.55c-20.76,9.84-41.44,19.78-63.9,30.51c4.79-19.65,8.81-37.37,13.57-54.87
			c1.56-5.77,7.52-8.81,11.65-12.9c7.02-6.99,14.27-13.77,22.15-21.32c6.38,17.64,12.23,33.8,18.03,49.96
			C295.52,446.06,297.75,449.27,292.87,451.55z"/>
		<path class="st1" d="M224.32,443.81c-6.16,19.59-1.62,42.69-21.79,56.54c-3.96,2.7-6.27,3.73-10.48,0.31
			c-8-6.55-14.07-13.6-15.72-24.41c-1.64-10.84-4.88-21.46-7.41-32.16c1-0.84,1.98-1.64,2.98-2.48c4.35,5.29,8.39,10.92,13.15,15.83
			c11.93,12.29,12.15,12.26,24.63-0.14C214.32,452.72,218.39,447.57,224.32,443.81z"/>
		<path class="st1" d="M286.35,331.95c-2.06,14.96-7.52,26.95-11.29,39.35c-0.81,2.65-3.37,1.7-5.21,0.7
			c-8.42-4.51-16.78-9.11-26.47-14.41C257.93,348.89,271.11,341.06,286.35,331.95z"/>
		<path class="st1" d="M146.05,360.4c-0.28,0.2-0.59,0.36-0.86,0.59c-22.1,16.11-23.99,15.55-32.63-9.84
			c-1.95-5.77-3.85-11.59-6.69-20.15c14.94,8.97,27.56,16.55,40.16,24.13C148.89,356.86,149.17,358.65,146.05,360.4z"/>
	</g>
</g>
</svg>
