<?xml version="1.0" encoding="utf-8"?>
<!-- Generator: Adobe Illustrator 25.0.0, SVG Export Plug-In . SVG Version: 6.00 Build 0)  -->
<svg version="1.1" id="Camada_1" xmlns="http://www.w3.org/2000/svg" xmlns:xlink="http://www.w3.org/1999/xlink" x="0px" y="0px"
	 viewBox="0 0 200 156" style="enable-background:new 0 0 200 156;" xml:space="preserve">
<style type="text/css">
	.st0{fill:#B800FF;}
</style>
<g>
	<path class="st0" d="M111.73,59.23c-2.28,0-3.97,0-5.67,0c-14.17,0-28.34-0.08-42.5,0.02c-18.24,0.13-32.07,12.63-33.93,30.51
		c-1.94,18.61,12.88,35.58,31.69,36.18c5.08,0.16,10.17-0.01,15.25,0.11c1.09,0.03,2.43,0.34,3.22,1.02
		c10.56,9.1,21.05,18.3,31.92,27.79c-1.04,0.18-1.68,0.38-2.33,0.38c-15.9,0.01-31.8,0.14-47.7-0.04
		c-28.97-0.35-54.38-21.19-60.28-49.23c-6.12-29.08,8.36-57.9,35.27-70.17c0.68-0.31,1.35-0.63,2.49-1.15
		C26.27,23.43,13.6,12.39,0.46,0.95c1.38-0.11,2.18-0.22,2.98-0.22C16.42,0.72,29.4,0.69,42.38,0.78c1.28,0.01,2.87,0.38,3.8,1.18
		c21.6,18.67,43.13,37.42,64.67,56.16C111,58.25,111.11,58.45,111.73,59.23z"/>
	<path class="st0" d="M160.88,121.19c12.8,11.09,25.44,22.03,38.55,33.4c-1.38,0.16-2.16,0.33-2.94,0.33
		c-12.87,0.02-25.74,0.05-38.6-0.05c-1.37-0.01-3.05-0.5-4.07-1.37c-21.14-18.2-42.2-36.49-63.29-54.74
		c-0.55-0.48-1.26-0.77-1.89-1.15c0.16-0.29,0.32-0.57,0.48-0.86c1.12-0.06,2.25-0.16,3.37-0.16c14.6-0.01,29.2,0.07,43.79-0.03
		c19.86-0.12,34.74-14.9,34.43-34.04c-0.28-17.56-14.29-31.86-31.92-32.47c-4.97-0.17-9.95,0.01-14.92-0.1
		c-1.09-0.03-2.23-0.5-3.24-0.99c-0.75-0.36-1.34-1.07-2-1.64c-9.96-8.64-19.92-17.28-30.3-26.28c1.23-0.13,2-0.29,2.76-0.29
		c15.57-0.01,31.14-0.09,46.71,0.01c29.45,0.19,54.74,20.59,60.75,48.89c6.18,29.1-8.18,57.9-35.04,70.28
		C162.75,120.27,161.99,120.66,160.88,121.19z"/>
</g>
</svg>
