<?xml version="1.0" encoding="utf-8"?>
<!-- Generator: Adobe Illustrator 25.0.0, SVG Export Plug-In . SVG Version: 6.00 Build 0)  -->
<svg version="1.1" id="svg318" xmlns="http://www.w3.org/2000/svg" xmlns:xlink="http://www.w3.org/1999/xlink" x="0px" y="0px"
	 viewBox="0 0 1200 800" style="enable-background:new 0 0 1200 800;" xml:space="preserve">
<style type="text/css">
	.st0{fill:none;}
	.st1{fill:#B7B7DA;}
</style>
<path class="st0" d="z"/>
<g id="g316" transform="translate(-64 -64.45)">
	<path id="path314" class="st1" d="M572.92,1188.2l-45.16,45.19l-45.16-45.19l45.16-45.16L572.92,1188.2z M682.61,1078.54
		l77.41,77.41l45.19-45.16L682.61,988.2l-122.59,122.59l45.19,45.16L682.61,1078.54z M837.45,1143.04l-45.16,45.16l45.16,45.19
		l45.16-45.19L837.45,1143.04z M682.61,1297.89l-77.41-77.41l-45.19,45.16l122.59,122.56l122.59-122.56l-45.19-45.16L682.61,1297.89
		z M682.61,1233.39l45.16-45.19l-45.16-45.16l-45.16,45.16L682.61,1233.39z M231.82,1605.98v-0.44c0-23.59-12.5-35.38-32.84-43.16
		c12.5-7,23.06-18.03,23.06-37.84v-0.5c0-27.59-22.06-45.41-57.94-45.41h-81.5v175.56h83.5
		C205.73,1654.14,231.82,1638.07,231.82,1605.98z M183.67,1530.98c0,13.06-10.78,18.56-27.84,18.56h-35.72v-37.13h38.12
		c16.28,0,25.31,6.53,25.31,18.06L183.67,1530.98z M193.45,1601.2c0,13.06-10.28,19.06-27.34,19.06h-46v-38.62h44.75
		c19.81,0,28.59,7.28,28.59,19.06L193.45,1601.2z M312.82,1654.14v-175.56H274.2v175.56H312.82z M520.42,1654.14v-175.56h-38.12
		v108.22l-82.25-108.09h-35.62v175.56h38.12v-111.75l85.03,111.62L520.42,1654.14z M734.36,1654.14l-75.25-176.72h-35.59
		l-75.28,176.72h39.38l16.06-39.38h74.25l16.06,39.38L734.36,1654.14z M664.14,1580.54h-46.66l23.31-56.91L664.14,1580.54z
		 M918.45,1654.04v-175.47h-38.13v108.22l-82.09-108.22h-35.62v175.56h38.13v-111.62l85,111.62L918.45,1654.04z M1117.82,1625.7
		l-24.56-25c-13.81,12.5-26.09,20.56-46.16,20.56c-30.09,0-50.91-25-50.91-55.16v-0.5c0-30.09,21.31-54.69,50.91-54.69
		c17.56,0,31.25,7.53,44.91,19.81l24.56-28.34c-16.31-16.03-36.12-27.06-69.22-27.06c-53.91,0-91.53,40.88-91.53,90.78v0.5
		c0,50.41,38.38,90.28,90.03,90.28c33.84,0.25,53.91-11.78,71.97-31.09V1625.7z M1282.61,1654.14v-34.38h-95.31v-36.88h82.81v-34.38
		h-82.81v-35.56h94.06v-34.38h-132.41v175.56H1282.61z"/>
</g>
<path class="st0" d="z"/>
<g>
	<path class="st1" d="M395.67,309.79c0-2.38,0-4.83-0.36-7.18c-2.09-13.21-9.3-22.8-20.81-29.46
		c-47.82-27.56-95.58-55.26-143.37-82.89c-3.36-1.96-6.79-3.78-10.05-5.87c-5.48-3.49-11.51-5.61-17.75-7.27h-11.09
		c-0.29,0.65-0.91,0.52-1.44,0.62c-4.76,0.95-9.2,2.71-13.37,5.15c-52.42,30.3-104.88,60.61-157.23,90.98
		c-13.34,7.76-20.13,19.57-20.16,35c-0.07,60.77-0.07,121.54,0,182.32c0.03,15.43,6.92,27.21,20.26,34.94
		c52.19,30.3,104.48,60.48,156.74,90.72c13.86,8.02,27.73,8.06,41.59,0.07c52.03-30.08,104.06-60.19,156.06-90.26
		c14.03-8.12,21.04-20.22,21.01-36.47C395.67,430.03,395.7,369.91,395.67,309.79z M197.83,531.05
		c-72.16,0.16-130.74-58.81-130.68-131.23c0.07-72.35,58.72-131.17,130.94-130.91c72.22,0.23,130.22,58.26,130.68,131.07
		C328.31,472.73,270.31,530.89,197.83,531.05z"/>
	<path class="st1" d="M1199.51,314.71c-0.29-1.92-0.46-3.85-0.91-5.74c-6.92-28.87-35.1-46.61-64.59-40.71
		c-28.87,5.77-48.08,34.12-42.47,62.66c4.63,23.55,22.93,40.29,47.46,43.39c27.27,3.49,52.94-14.16,59.57-40.81
		c0.39-1.63,0.16-3.46,1.44-4.86V318.1C1199.18,317.06,1199.45,315.89,1199.51,314.71z M1155.83,349.71
		c-11.81,4.31-25.22,1.04-32.98-8.58c-8.64-10.73-9.13-22.8-3.39-34.87c5.28-11.09,14.88-16.15,27.04-15.79
		c16.41,0.52,28.28,13.6,28.22,30.63C1174.65,334.38,1167.25,345.57,1155.83,349.71z"/>
	<path class="st1" d="M1200,318.1c-0.82-1.04-0.55-2.22-0.49-3.39C1200.1,315.79,1199.31,317.06,1200,318.1z"/>
	<path class="st1" d="M1200,314.78v3.33c-0.82-1.04-0.55-2.22-0.49-3.39C1199.71,314.71,1199.87,314.74,1200,314.78z"/>
	<path class="st1" d="M1097.76,454.37c0,1.65,0,2.64,0,3.64c0,23.86-0.03,47.73,0.05,71.59c0.01,2.1-0.42,2.81-2.69,2.78
		c-9.26-0.14-18.52-0.12-27.77-0.01c-2.1,0.02-2.81-0.42-2.8-2.69c0.07-43.2,0.07-86.39,0.01-129.59c0-2.13,0.61-2.61,2.65-2.58
		c7.4,0.12,14.81,0.12,22.22,0c1.95-0.03,3.18,0.59,4.43,2.07c21.52,25.53,43.11,51.01,64.68,76.51c0.35,0.41,0.74,0.79,1.58,1.7
		c0-1.48,0-2.42,0-3.37c0-24.42,0-48.84,0-73.26c0-3.6,0-3.6,3.74-3.6c8.8,0,17.59,0.05,26.39-0.04c2.03-0.02,2.86,0.3,2.86,2.66
		c-0.08,43.2-0.07,86.39-0.01,129.59c0,2.07-0.5,2.65-2.61,2.61c-7.4-0.14-14.81-0.12-22.22-0.01c-1.86,0.03-3.02-0.61-4.2-1.98
		c-21.66-24.93-43.38-49.81-65.08-74.71C1098.73,455.4,1098.48,455.14,1097.76,454.37z"/>
	<path class="st1" d="M541.45,464.86c-2.97-1.47-6.17-2.22-9.49-3.07c9.1-2.41,16.15-7.44,19.51-16.25
		c4.89-12.89,3.13-25.18-5.68-35.95c-7.5-9.13-17.94-13.02-29.46-13.18c-23.49-0.29-47.01-0.1-70.53-0.23
		c-2.64,0-2.19,1.47-2.19,2.97c0,42.93,0.03,85.82-0.03,128.72c0,2.38,0.46,3.1,3,3.1c21.73-0.1,43.48-0.03,65.24-0.07
		c4.08-0.03,8.12-0.2,12.17-0.78c19.31-2.81,31.22-13.93,33.47-32.2C559.17,483.82,554.37,471.26,541.45,464.86z M476.67,424.55
		c0-1.5,0.65-1.6,1.83-1.6c4.99,0.03,10.01,0.03,15.01,0.03c4.44,0,8.87-0.07,13.31,0c8.61,0.13,14.78,5.64,15.01,13.44
		c0.2,8.45-5.74,15.07-14.45,15.36c-9.72,0.33-19.44,0.07-29.13,0.13c-1.24,0-1.57-0.42-1.57-1.6
		C476.73,441.74,476.73,433.12,476.67,424.55z M523.38,494.12c-1.73,5.77-6.88,9.53-13.6,9.95c-0.46,0.03-0.95,0.03-1.4,0.07h-14.12
		c-5.19,0-10.37-0.03-15.56,0.03c-1.53,0.03-2.02-0.39-2.02-1.99c0.07-8.58,0.07-17.16,0-25.77c0-1.5,0.52-1.83,1.89-1.79
		c10.18,0.03,20.36-0.13,30.53,0.1C519.92,474.94,526.38,483.91,523.38,494.12z"/>
	<path class="st1" d="M939,393.16c-39.83,0.07-71.8,31.71-71.6,70.85c0.2,38.95,32.13,70,71.86,69.97
		c39.7-0.07,71.5-31.41,71.41-70.36C1010.57,424.41,978.7,393.1,939,393.16z M939.23,503.55c-21.92,0.2-38.52-16.83-38.66-39.57
		c-0.13-22.9,16.31-40.22,38.26-40.38c22.08-0.16,38.66,16.96,38.82,40.12C977.82,486.3,961.31,503.39,939.23,503.55z"/>
	<path class="st1" d="M836.38,443.96c-1.59-3.29-2.94-6.53-5.36-9.16c-8.46-9.2-19.14-12.14-31.19-10.96
		c-22.23,2.16-36.44,23.84-33.41,45.42c2.56,18.22,14.41,31.04,31.69,33.93c14.95,2.5,29.42-2.77,37.27-17.8
		c0.87-1.67,1.38-2.12,3.18-1.05c8.17,4.87,16.39,9.66,24.71,14.29c2.14,1.19,2.03,2.1,0.91,3.95c-9.31,15.41-23,24.91-40.29,28.97
		c-25.72,6.05-49.39,1.49-68.83-16.94c-20.4-19.34-26.93-43.58-19.2-70.48c7.72-26.88,26.42-43.52,53.7-49.24
		c24.56-5.15,46.8,0.61,65.39,18.13c3.86,3.63,7,7.86,9.65,12.45c0.52,0.89,1.13,1.6-0.28,2.4
		C855.03,433.17,845.77,438.55,836.38,443.96z"/>
	<path class="st1" d="M503.12,334.38c10.87-20.56,21.72-40.92,32.34-61.4c1.47-2.83,3.09-3.72,6.14-3.6
		c6.1,0.24,12.22,0.12,18.32,0.04c1.67-0.02,2.22,0.44,2.22,2.18c-0.05,32.92-0.05,65.85,0,98.77c0,1.77-0.57,2.15-2.22,2.13
		c-6.66-0.08-13.33-0.12-19.99,0.01c-2.03,0.04-2.41-0.66-2.4-2.52c0.07-16.18,0.04-32.37,0.04-48.55c0-0.89,0-1.79,0-2.74
		c-1.13,0.12-1.13,1.04-1.43,1.6c-8.73,16.57-17.47,33.15-26.11,49.77c-0.93,1.78-2.03,2.17-3.96,2.51
		c-6.93,1.2-10.34-1.78-13.31-7.96c-7.1-14.8-15.1-29.17-22.74-43.71c-0.42-0.8-0.86-1.6-1.86-2.39c0,0.92,0,1.84,0,2.77
		c0,16-0.05,32,0.05,48c0.01,2.4-0.4,3.35-3.1,3.25c-6.38-0.23-12.77-0.12-19.16-0.04c-1.68,0.02-2.43-0.26-2.43-2.22
		c0.06-32.83,0.06-65.66,0.01-98.49c0-1.78,0.44-2.41,2.32-2.37c6.76,0.11,13.52,0.13,20.27-0.01c1.92-0.04,2.71,0.76,3.53,2.31
		c10.56,20.1,21.18,40.16,31.8,60.23C501.87,332.74,502.09,333.68,503.12,334.38z"/>
	<path class="st1" d="M672.08,396.27c19.07,0,38.14,0.04,57.21-0.05c2.29-0.01,2.94,0.56,2.9,2.89c-0.15,7.95-0.12,15.91-0.02,23.86
		c0.02,1.86-0.55,2.3-2.34,2.28c-12.78-0.07-25.55,0.03-38.33-0.1c-2.38-0.02-3.07,0.48-3.06,2.99c0.1,33.2,0.04,66.41,0.12,99.61
		c0.01,2.41-0.43,3.3-3.1,3.24c-8.98-0.19-17.96-0.18-26.94,0c-2.56,0.05-2.97-0.75-2.97-3.09c0.08-33.2,0.02-66.41,0.11-99.61
		c0.01-2.5-0.59-3.18-3.13-3.15c-12.59,0.14-25.18,0.03-37.77,0.11c-1.94,0.01-2.72-0.27-2.67-2.49c0.16-8.04,0.13-16.09,0.01-24.14
		c-0.03-2.01,0.61-2.4,2.49-2.39C633.76,396.3,652.92,396.27,672.08,396.27z"/>
	<path class="st1" d="M728.6,335.95c1.01-0.33,1.6-0.49,2.22-0.69c13.02-3.95,21.82-12.1,24.07-25.84
		c2.25-13.86-1.73-25.64-13.86-33.76c-5.81-3.88-12.4-5.87-19.34-5.94c-17.68-0.2-35.36-0.13-53.04-0.26
		c-1.92-0.03-2.06,0.78-2.06,2.32c0.03,32.82,0.03,65.67,0,98.48c-0.03,1.92,0.65,2.25,2.35,2.22c6.69-0.07,13.34-0.13,20,0.03
		c2.28,0.07,2.97-0.46,2.94-2.84c-0.13-10.08-0.07-20.16-0.03-30.24c0-0.78-0.39-1.73,0.49-2.28c1.37-0.85,7.11,0.23,8.22,1.5
		c8.42,9.59,17.06,19.02,25.15,28.87c3.13,3.82,6.33,5.32,11.22,5.06c7.73-0.42,15.46-0.13,23.78-0.13
		C749.83,360.09,739.36,348.18,728.6,335.95z M724.36,313.9c-2.41,1.3-4.99,1.96-7.7,1.99c-3.72,0.03-7.4,0-11.09,0c0,0,0,0,0,0.03
		c-3.88,0-7.76-0.07-11.65,0.03c-1.47,0-2.15-0.23-2.12-1.96c0.1-6.92,0.07-13.83,0-20.75c0-1.5,0.33-2.15,1.99-2.12
		c7.5,0.07,14.97,0,22.44,0.07c2.81,0.03,5.51,0.55,8.02,1.92c4.08,2.19,6.3,5.51,6.36,10.21
		C730.65,308.12,728.5,311.61,724.36,313.9z"/>
	<path class="st1" d="M1078.06,295.43c-9.36-16.64-24.53-24.07-42.9-25.51c-14.84-1.14-29.78-0.2-44.66-0.46
		c-2.32-0.07-2.94,0.55-2.94,2.87c0.1,16.18,0.07,32.36,0.07,48.54c0,16.28,0.03,32.56-0.03,48.83c-0.03,2.02,0.33,2.84,2.64,2.81
		c12.49-0.13,24.99-0.03,37.48-0.07c5.28,0,10.54-0.49,15.69-1.6C1085.7,361.72,1091.7,319.7,1078.06,295.43z M1058.88,323.39
		c-0.52,13.18-9.95,23.75-23.62,26.29c-6.98,1.3-14.03,0.49-21.04,0.72c-1.96,0.07-1.37-1.37-1.37-2.32c-0.03-9.17,0-18.3,0-27.47
		c0-8.87,0.03-17.78-0.07-26.65c0-1.83,0.29-2.61,2.38-2.51c7.54,0.29,15.17-0.68,22.64,1.44
		C1052,296.93,1059.54,307.83,1058.88,323.39z"/>
	<path class="st1" d="M574.38,320.86c0-16.18,0.03-32.37-0.04-48.55c-0.01-1.99,0.25-2.87,2.63-2.86c24.9,0.1,49.8,0.09,74.7,0.01
		c2.16-0.01,2.84,0.51,2.78,2.74c-0.17,5.54-0.16,11.1,0,16.64c0.06,2.15-0.64,2.58-2.66,2.57c-16.38-0.08-32.77,0-49.15-0.1
		c-2.3-0.01-3.27,0.34-3.12,2.96c0.26,4.52,0.19,9.06,0.02,13.59c-0.09,2.26,0.49,2.97,2.86,2.95c14.72-0.11,29.44,0.02,44.15-0.13
		c2.57-0.03,3.03,0.75,2.95,3.08c-0.18,4.99-0.17,9.99,0,14.98c0.07,2.09-0.52,2.61-2.6,2.6c-14.81-0.09-29.62,0-44.43-0.1
		c-2.24-0.01-3.04,0.49-2.94,2.86c0.2,4.52,0.24,9.07-0.01,13.59c-0.15,2.62,0.81,3,3.13,2.98c16.29-0.09,32.58-0.01,48.87-0.1
		c2.27-0.01,3,0.53,2.93,2.87c-0.18,5.54-0.15,11.1-0.01,16.64c0.05,2.01-0.61,2.42-2.5,2.41c-24.99-0.06-49.99-0.08-74.98,0.02
		c-2.37,0.01-2.63-0.84-2.62-2.83C574.41,353.41,574.38,337.14,574.38,320.86z"/>
	<path class="st1" d="M977.27,371.05c-13.9-33.27-27.76-66.55-41.59-99.82c-0.59-1.44-1.44-1.66-2.74-1.66
		c-7.05,0.03-14.06,0.16-21.11-0.03c-2.32-0.07-3.16,0.82-3.98,2.74c-13.41,32.29-26.88,64.52-40.32,96.79
		c-0.42,1.04-1.21,2.06-1.01,3.39c8.35,0,16.7-0.03,25.02,0.07c1.4,0,1.92-0.59,2.35-1.73c1.89-5.09,3.91-10.14,5.77-15.27
		c0.52-1.44,1.24-1.92,2.81-1.92c13.05,0.1,26.1,0.1,39.14,0.03c1.57-0.03,2.28,0.42,2.81,1.89c1.83,5.02,3.78,9.98,5.64,15.01
		c0.46,1.17,0.88,1.99,2.48,1.99c8.32-0.1,16.64-0.07,25.12-0.07C977.49,371.9,977.43,371.44,977.27,371.05z M910.75,331.9
		c-1.37,0-1.6-0.49-1.14-1.63c1.08-2.77,2.12-5.51,3.2-8.25c3-7.76,5.97-15.49,9.23-23.91c4.5,11.55,8.81,22.51,13.21,33.76
		C926.8,331.87,918.78,331.87,910.75,331.9z"/>
	<path class="st1" d="M763.86,320.73c0.04-27.78,21.54-50.98,49.45-53.22c18.35-1.47,34.12,3.97,46.52,17.93
		c1.65,1.85,2.9,4.05,4.37,6.06c0.8,1.09,0.83,1.76-0.54,2.53c-6.52,3.67-12.97,7.46-19.44,11.22c-0.74,0.43-1.37,0.91-1.92-0.31
		c-5.17-11.34-14.73-15.14-26.31-14.38c-11.81,0.77-19.9,7.34-24.41,18.15c-6.93,16.62,0.89,35.44,17.03,41.25
		c10.37,3.73,25.92,2.22,33.48-12.39c0.67-1.29,1.13-1.46,2.4-0.71c6.28,3.71,12.58,7.39,18.98,10.91c1.73,0.95,1.29,1.7,0.55,2.93
		c-6.97,11.67-17.33,18.68-30.31,22.09c-24.58,6.46-49.85-3.39-62.33-24.34C766.29,339.92,763.82,330.66,763.86,320.73z"/>
	<path class="st1" d="M1018.95,463.53c0-21.45,0.03-42.9-0.05-64.35c-0.01-2.19,0.36-3,2.79-2.96c9.34,0.16,18.69,0.12,28.04,0.02
		c1.94-0.02,2.46,0.52,2.46,2.46c-0.06,43.27-0.06,86.55,0,129.82c0,2.03-0.68,2.42-2.53,2.4c-9.35-0.08-18.7-0.11-28.04,0.02
		c-2.22,0.03-2.73-0.62-2.72-2.77C1018.99,506.61,1018.95,485.07,1018.95,463.53z"/>
	<path class="st1" d="M566.49,463.55c0-21.46,0.05-42.91-0.07-64.37c-0.01-2.55,0.74-3,3.08-2.96c9.25,0.14,18.51,0.1,27.77,0.01
		c1.81-0.02,2.3,0.47,2.3,2.29c-0.05,43.37-0.05,86.75,0,130.12c0,1.86-0.57,2.28-2.33,2.27c-9.35-0.08-18.7-0.11-28.05,0.01
		c-2.17,0.03-2.76-0.54-2.75-2.73C566.53,506.64,566.49,485.09,566.49,463.55z"/>
	<path class="st1" d="M272.37,427.38c-1.99-14.22-10.11-23.42-23.68-27.86c-1.89-0.62-3.88-0.88-6.2-1.44
		c0.59-0.46,0.69-0.62,0.85-0.65c0.36-0.13,0.72-0.23,1.08-0.33c10.08-2.58,17.22-8.64,21.3-18.17
		c7.34-17.22,0.88-38.75-14.65-49.19c-8.55-5.74-18.1-8.25-28.28-8.29c-26.85-0.13-53.69-0.03-80.54-0.13
		c-2.15,0-2.51,0.65-2.51,2.64c0.03,50.69,0.07,101.35-0.03,152.01c0,2.28,0.75,2.67,2.81,2.67c25.74-0.07,51.48-0.03,77.18-0.03
		c4.08,0,8.16-0.1,12.2-0.65c9.85-1.37,19.15-4.27,26.88-10.83C271.16,456.64,274.49,442.85,272.37,427.38z M178.35,354.15
		c-0.03-1.73,0.85-1.63,2.06-1.63c5.71,0.03,11.45,0,17.19,0c5.09,0,10.18-0.03,15.27,0c10.5,0.07,17.97,6.52,18.23,15.76
		c0.26,9.92-6.98,17.68-17.48,17.97c-11.16,0.33-22.38,0.07-33.57,0.13c-1.34,0-1.7-0.42-1.7-1.73
		C178.39,374.47,178.42,364.33,178.35,354.15z M232.9,435.28c-2.06,7.24-8.02,11.84-16.73,12.04c-12.04,0.26-24.07,0.07-36.08,0.13
		c-1.34,0-1.73-0.42-1.73-1.73c0.03-10.34,0.07-20.71,0-31.05c-0.03-1.6,0.69-1.76,1.96-1.76c6.2,0.03,12.4,0.03,18.59,0.03v0.03
		c5.94,0,11.87-0.16,17.78,0.03C228.79,413.42,236.19,423.66,232.9,435.28z"/>
</g>
</svg>
