<?xml version="1.0" encoding="utf-8"?>
<!-- Generator: Adobe Illustrator 25.0.0, SVG Export Plug-In . SVG Version: 6.00 Build 0)  -->
<svg version="1.1" id="svg318" xmlns="http://www.w3.org/2000/svg" xmlns:xlink="http://www.w3.org/1999/xlink" x="0px" y="0px"
	 viewBox="0 0 1200 800" style="enable-background:new 0 0 1200 800;" xml:space="preserve">
<style type="text/css">
	.st0{fill:none;}
	.st1{fill:#B7B7DA;}
</style>
<path class="st0" d="z"/>
<g id="g316" transform="translate(-64 -64.45)">
	<path id="path314" class="st1" d="M572.92,1188.2l-45.16,45.19l-45.16-45.19l45.16-45.16L572.92,1188.2z M682.61,1078.54
		l77.41,77.41l45.19-45.16L682.61,988.2l-122.59,122.59l45.19,45.16L682.61,1078.54z M837.45,1143.04l-45.16,45.16l45.16,45.19
		l45.16-45.19L837.45,1143.04z M682.61,1297.89l-77.41-77.41l-45.19,45.16l122.59,122.56l122.59-122.56l-45.19-45.16L682.61,1297.89
		z M682.61,1233.39l45.16-45.19l-45.16-45.16l-45.16,45.16L682.61,1233.39z M231.82,1605.98v-0.44c0-23.59-12.5-35.38-32.84-43.16
		c12.5-7,23.06-18.03,23.06-37.84v-0.5c0-27.59-22.06-45.41-57.94-45.41h-81.5v175.56h83.5
		C205.73,1654.14,231.82,1638.07,231.82,1605.98z M183.67,1530.98c0,13.06-10.78,18.56-27.84,18.56h-35.72v-37.13h38.12
		c16.28,0,25.31,6.53,25.31,18.06L183.67,1530.98z M193.45,1601.2c0,13.06-10.28,19.06-27.34,19.06h-46v-38.62h44.75
		c19.81,0,28.59,7.28,28.59,19.06L193.45,1601.2z M312.82,1654.14v-175.56H274.2v175.56H312.82z M520.42,1654.14v-175.56h-38.12
		v108.22l-82.25-108.09h-35.62v175.56h38.12v-111.75l85.03,111.62L520.42,1654.14z M734.36,1654.14l-75.25-176.72h-35.59
		l-75.28,176.72h39.38l16.06-39.38h74.25l16.06,39.38L734.36,1654.14z M664.14,1580.54h-46.66l23.31-56.91L664.14,1580.54z
		 M918.45,1654.04v-175.47h-38.13v108.22l-82.09-108.22h-35.62v175.56h38.13v-111.62l85,111.62L918.45,1654.04z M1117.82,1625.7
		l-24.56-25c-13.81,12.5-26.09,20.56-46.16,20.56c-30.09,0-50.91-25-50.91-55.16v-0.5c0-30.09,21.31-54.69,50.91-54.69
		c17.56,0,31.25,7.53,44.91,19.81l24.56-28.34c-16.31-16.03-36.12-27.06-69.22-27.06c-53.91,0-91.53,40.88-91.53,90.78v0.5
		c0,50.41,38.38,90.28,90.03,90.28c33.84,0.25,53.91-11.78,71.97-31.09V1625.7z M1282.61,1654.14v-34.38h-95.31v-36.88h82.81v-34.38
		h-82.81v-35.56h94.06v-34.38h-132.41v175.56H1282.61z"/>
</g>
<path class="st0" d="z"/>
<g>
	<path class="st1" d="M0,397.76c0.38-79.48,36.28-146.16,101.58-198.87c19.92-16.08,33.82-12.06,50.22,4.95
		c55.43,57.49,112.39,113.53,167.54,171.29c19.39,20.31,34.45,21.75,53.43,0.28c20.22-22.87,41.96-44.49,64.03-65.62
		c19.77-18.92,34.32-14.86,43.85,10.67c36.23,97.08-8.45,228.35-96.07,284.75c-17.21,11.08-28.59,5.91-41.11-6.93
		c-55.77-57.19-111.99-113.94-167.99-170.89c-25.3-25.73-32.5-25.87-57.49-0.5c-20.07,20.37-39.68,41.22-60.2,61.12
		c-22,21.33-36.91,17.14-46.83-12.21C2.96,452.18,0.97,427.65,0,397.76z"/>
	<path class="st1" d="M904.53,500.45c-57.62-0.46-100.62-43.9-99.9-100.93c0.71-56.24,45.39-100.34,102.12-100.8
		c57.51-0.46,103.12,45.15,102.65,102.67C1008.94,459.42,964.99,500.92,904.53,500.45z M964.02,402.18
		c0.42-36.44-22.5-61.8-56.27-62.28c-34.46-0.49-57.97,23.78-58.03,59.9c-0.06,36.02,23.6,60.95,57.62,60.71
		C940.87,460.27,963.61,436.87,964.02,402.18z"/>
	<path class="st1" d="M725.13,422.64c0-35.2,0.31-62.28-0.12-89.34c-0.25-16.06,1.18-31.28,21.83-30.76
		c18.38,0.46,20.27,14.19,20.1,29.43c-0.5,45.3-0.65,90.61,0.1,135.91c0.24,14.25-2.52,26.11-16.56,30.74
		c-13.05,4.3-22.6-4.09-30.04-13.88c-26.01-34.24-51.78-68.67-83.48-101.73c0,28.91-0.4,57.83,0.16,86.73
		c0.3,15.54-3.25,29.31-20.74,29.39c-17.19,0.08-21.73-13.53-21.66-29.04c0.21-45.3,0.11-90.61,0.05-135.91
		c-0.02-13.2,0.28-26.29,16.42-30.48c15.28-3.97,26.34,2.22,35.47,14.57C670.89,351.04,695.62,383.46,725.13,422.64z"/>
	<path class="st1" d="M1114.54,431.41c-3.94,4.34-7.17,7.47-9.91,10.99c-11.47,14.77-22.76,29.68-34.19,44.47
		c-8.63,11.16-19.07,18.87-32.39,8.31c-12.96-10.27-8.91-22.63-0.34-33.81c10.8-14.07,20.59-29.37,33.46-41.28
		c17.25-15.96,13.88-28.37-0.6-43.19c-10.26-10.51-18.51-22.97-27.89-34.36c-9.66-11.72-16.26-25.14-1.8-35.95
		c14.91-11.15,27.58-2.63,37.22,11.02c8.52,12.06,18,23.48,25.92,35.91c8.8,13.81,15.26,11.32,23.4-0.62
		c9.43-13.82,19.99-26.88,30.24-40.13c9.36-12.09,21.69-14.86,33.44-5.58c11.94,9.43,6.61,21.26-0.87,31.29
		c-8.23,11.04-15.71,23.3-26.07,31.96c-24.9,20.78-18.58,38.46,1.49,57.75c9.86,9.47,17.49,21.25,26.18,31.95
		c9.1,11.21,12.39,23.29,0.46,33.87c-14.1,12.51-25.32,4.34-34.68-7.74c-10.86-14.02-21.42-28.26-32.23-42.32
		C1122.44,440.15,1119.1,436.66,1114.54,431.41z"/>
</g>
</svg>
