<?xml version="1.0" encoding="utf-8"?>
<!-- Generator: Adobe Illustrator 25.0.0, SVG Export Plug-In . SVG Version: 6.00 Build 0)  -->
<svg version="1.1" id="svg318" xmlns="http://www.w3.org/2000/svg" xmlns:xlink="http://www.w3.org/1999/xlink" x="0px" y="0px"
	 viewBox="0 0 1200 800" style="enable-background:new 0 0 1200 800;" xml:space="preserve">
<style type="text/css">
	.st0{fill:none;}
	.st1{fill:#B7B7DA;}
</style>
<path class="st0" d="z"/>
<g id="g316" transform="translate(-64 -64.45)">
	<path id="path314" class="st1" d="M572.92,1188.2l-45.16,45.19l-45.16-45.19l45.16-45.16L572.92,1188.2z M682.61,1078.54
		l77.41,77.41l45.19-45.16L682.61,988.2l-122.59,122.59l45.19,45.16L682.61,1078.54z M837.45,1143.04l-45.16,45.16l45.16,45.19
		l45.16-45.19L837.45,1143.04z M682.61,1297.89l-77.41-77.41l-45.19,45.16l122.59,122.56l122.59-122.56l-45.19-45.16L682.61,1297.89
		z M682.61,1233.39l45.16-45.19l-45.16-45.16l-45.16,45.16L682.61,1233.39z M231.82,1605.98v-0.44c0-23.59-12.5-35.38-32.84-43.16
		c12.5-7,23.06-18.03,23.06-37.84v-0.5c0-27.59-22.06-45.41-57.94-45.41h-81.5v175.56h83.5
		C205.73,1654.14,231.82,1638.07,231.82,1605.98z M183.67,1530.98c0,13.06-10.78,18.56-27.84,18.56h-35.72v-37.13h38.12
		c16.28,0,25.31,6.53,25.31,18.06L183.67,1530.98z M193.45,1601.2c0,13.06-10.28,19.06-27.34,19.06h-46v-38.62h44.75
		c19.81,0,28.59,7.28,28.59,19.06L193.45,1601.2z M312.82,1654.14v-175.56H274.2v175.56H312.82z M520.42,1654.14v-175.56h-38.12
		v108.22l-82.25-108.09h-35.62v175.56h38.12v-111.75l85.03,111.62L520.42,1654.14z M734.36,1654.14l-75.25-176.72h-35.59
		l-75.28,176.72h39.38l16.06-39.38h74.25l16.06,39.38L734.36,1654.14z M664.14,1580.54h-46.66l23.31-56.91L664.14,1580.54z
		 M918.45,1654.04v-175.47h-38.13v108.22l-82.09-108.22h-35.62v175.56h38.13v-111.62l85,111.62L918.45,1654.04z M1117.82,1625.7
		l-24.56-25c-13.81,12.5-26.09,20.56-46.16,20.56c-30.09,0-50.91-25-50.91-55.16v-0.5c0-30.09,21.31-54.69,50.91-54.69
		c17.56,0,31.25,7.53,44.91,19.81l24.56-28.34c-16.31-16.03-36.12-27.06-69.22-27.06c-53.91,0-91.53,40.88-91.53,90.78v0.5
		c0,50.41,38.38,90.28,90.03,90.28c33.84,0.25,53.91-11.78,71.97-31.09V1625.7z M1282.61,1654.14v-34.38h-95.31v-36.88h82.81v-34.38
		h-82.81v-35.56h94.06v-34.38h-132.41v175.56H1282.61z"/>
</g>
<path class="st0" d="z"/>
<g>
	<path class="st1" d="M1200,338.02c-11.94,0.33-23.89,0.68-35.83,0.98c-3.24,0.08-6.49,0.01-10.77,0.01
		c-0.14,3.04-0.38,5.89-0.39,8.75c-0.03,37.23-0.02,74.45-0.02,111.68c0,2-0.04,4-0.02,6c0.04,3.85-1.49,6.89-5.62,5.76
		c-2.05-0.56-4.6-3.5-4.85-5.61c-0.68-5.67-0.25-11.46-0.25-17.21c0-33.48,0-66.96,0-100.44c0-2.7,0-5.39,0-8.92
		c-12.7,0-24.62,0-36.53,0c-2,0-4.35,0.65-5.91-0.18c-1.97-1.05-4.53-3.3-4.55-5.06c-0.02-1.59,3.02-4.61,4.73-4.63
		c31.97-0.28,63.94-0.22,95.91-0.13c1.36,0,2.72,0.98,4.08,1.51C1200,333.02,1200,335.52,1200,338.02z"/>
	<path class="st1" d="M0,386.03c8.4-0.32,16.81-0.93,25.19-0.72c1.64,0.04,4.4,3.16,4.57,5.05c0.57,6.41,0.63,12.94-0.03,19.34
		c-0.2,1.91-3.29,4.92-5.18,5.02c-8.16,0.43-16.36-0.03-24.55-0.17C0,405.04,0,395.54,0,386.03z"/>
	<path class="st1" d="M461.89,401.53c0,20.24-0.22,40.47,0.13,60.7c0.11,6.61-2.05,9.03-8.62,8.47c-5.46-0.46-11.03-0.51-16.48,0.01
		c-6.87,0.66-9.16-1.74-9.05-8.74c0.36-23.99,0.14-47.99,0.14-71.99c0-17.25,0.26-34.5-0.12-51.74c-0.15-6.92,1.88-8.64,9.09-9.71
		c18.71-2.77,29.07,4.41,36.39,21.58c7.09,16.62,17.38,31.88,26.7,48.5c11.88-21.28,23.52-41.62,34.58-62.27
		c3.01-5.61,6.37-8.15,12.8-7.54c5.94,0.57,12.02,0.52,17.97,0.01c6.35-0.53,8.16,1.9,8.13,8.06c-0.22,38.74-0.11,77.49-0.11,116.23
		c0,17.49,0,17.49-17.24,17.49c-16.32,0-16.32,0-16.32-16.14c0-18.49,0-36.98,0-57.18c-1.81,2.62-2.91,3.96-3.74,5.45
		c-10.39,18.51-20.7,37.06-31.12,55.55c-3.82,6.78-5.43,6.73-9.25,0c-10.82-19.05-21.61-38.11-32.42-57.16
		C462.85,401.26,462.37,401.4,461.89,401.53z"/>
	<path class="st1" d="M222.42,446.79c0,5.99-0.15,11.94,0.05,17.88c0.15,4.58-1.21,7.05-6.34,6.84c-6.99-0.28-14-0.21-21-0.02
		c-4.43,0.12-6.32-1.52-6.31-6.1c0.09-43.51,0.09-87.02,0-130.52c-0.01-4.62,1.9-6.04,6.32-6c18.5,0.17,37.01-0.31,55.49,0.21
		c24.64,0.7,46.73,18.53,53.41,42.26c6.89,24.49-2.63,50.52-23.63,64.52c-1.85,1.24-3.77,2.38-6.67,4.2
		c7.87,7.68,15.59,15.03,23.03,22.64c1.71,1.75,2.48,4.42,3.69,6.67c-2.52,0.67-5.03,1.37-7.57,1.97c-0.71,0.17-1.51-0.07-2.24,0.04
		c-17.33,2.62-31.25-2.94-41.91-16.99C242.21,445.78,233.12,444.74,222.42,446.79z M222.77,417.64c9.21,0,17.69,0.17,26.15-0.04
		c14.92-0.36,27.11-11.65,28.79-26.4c1.74-15.28-7.37-30.27-22.12-32.79c-10.54-1.81-21.63-0.35-32.81-0.35
		C222.77,377.74,222.77,397.13,222.77,417.64z"/>
	<path class="st1" d="M1050.39,400.11c18.84,16.2,23.28,35.84,12.21,53.18c-7.42,11.62-18.32,17.66-31.9,18.04
		c-15.98,0.45-31.99-0.05-47.99,0.2c-5.4,0.08-6.85-2.17-6.83-7.16c0.11-42.75,0.14-85.5-0.02-128.25c-0.02-5.55,1.83-7.41,7.4-7.29
		c14.99,0.32,29.99,0.07,44.99,0.12c17.96,0.05,32.34,9.66,37.92,25.23c5.77,16.12,0.69,32.44-13.7,44.02
		C1051.9,398.66,1051.38,399.19,1050.39,400.11z M986.92,394.84c15.64,0,30.36,0.44,45.05-0.13c13.94-0.53,24.96-12.05,25.69-25.61
		c0.78-14.42-8.45-27.63-22.65-28.86c-15.78-1.37-31.78-0.31-48.09-0.31C986.92,358.27,986.92,376.14,986.92,394.84z M986.95,405.61
		c0,18.73,0,36.58,0,54.94c15.86,0,31.32,0.8,46.67-0.23c14.29-0.96,24.28-13.47,24.09-27.73c-0.18-13.83-10.71-26.17-24.3-26.81
		C1018.24,405.06,1003.02,405.61,986.95,405.61z"/>
	<path class="st1" d="M68.27,328.94c8.49,0,17,0.33,25.47-0.07c15.91-0.77,28.77,5.48,37,18.5c5.86,9.28,9.2,20.21,13.21,30.57
		c1.7,4.39-0.14,7.1-5.44,6.93c-7.23-0.23-14.52,0.37-21.7-0.31c-2.26-0.21-4.93-3-6.18-5.28c-1.88-3.43-2.28-7.66-4.02-11.19
		c-3.46-7.03-9.06-11.07-17.27-10.91c-6.74,0.13-13.49,0.15-20.23-0.02c-4.13-0.1-5.94,1.49-5.81,5.71
		c0.18,5.74,0.48,11.55-0.23,17.2c-0.25,2-3.19,5.05-5.1,5.21c-7.44,0.61-14.96,0.17-22.46,0.28c-4.06,0.06-5.86-1.55-5.83-5.77
		c0.13-14.99,0.14-29.98-0.01-44.96c-0.05-4.65,1.99-6.03,6.38-5.95C46.79,329.07,57.53,328.94,68.27,328.94z"/>
	<path class="st1" d="M651.23,357.19c0,8.28-0.17,15.25,0.06,22.21c0.15,4.6-1.84,6.25-6.23,6.16c-7.24-0.15-14.49-0.13-21.74-0.01
		c-4.14,0.07-5.8-1.7-5.77-5.84c0.11-15,0.09-29.99,0.01-44.99c-0.02-4.03,1.43-5.86,5.72-5.84c30.99,0.1,61.97-0.03,92.96,0.28
		c1.81,0.02,3.6,3.3,5.37,5.09c0.13,0.13,0.03,0.48,0.03,0.73c-0.58,27.21,4.4,21.66-20.85,22.14
		C684.58,357.43,668.39,357.19,651.23,357.19z"/>
	<path class="st1" d="M651.24,443.15c20.86,0,40.77,0,60.68,0c9.7,0,9.7,0.01,9.71,10c0.03,18.28,0.03,18.28-17.96,18.28
		c-25.7,0-51.4-0.2-77.1,0.14c-6.67,0.09-9.42-1.49-9.15-8.7c0.52-13.46,0.35-26.95,0.06-40.42c-0.12-5.69,1.51-8.32,7.61-7.89
		c5.96,0.42,11.99,0.41,17.95,0c6.07-0.42,8.73,1.57,8.29,7.98C650.89,428.97,651.24,435.45,651.24,443.15z"/>
	<path class="st1" d="M82.32,414.65c14.98,0,29.96-0.08,44.94,0.09c1.99,0.02,3.97,1.29,5.95,1.99c-0.76,1.75-1.15,3.81-2.34,5.19
		c-11.26,13.1-25.17,21-42.82,21.24c-5.99,0.08-12,0.31-17.97-0.06c-5.44-0.34-7.07,2.03-6.81,7.05c0.26,4.98-0.09,9.99,0.09,14.98
		c0.16,4.34-1.38,6.49-6.02,6.37c-7.24-0.19-14.48-0.19-21.72,0c-4.72,0.12-5.97-2.22-5.93-6.47c0.12-14.48,0.19-28.97-0.03-43.45
		c-0.08-5.16,1.75-7.08,6.98-7C51.85,414.8,67.09,414.65,82.32,414.65z"/>
	<path class="st1" d="M827.87,329.36c8.97-1.07,14.47,2.56,18.98,8.48c13.44,17.69,26.94,35.33,41.07,53.85
		c2.87-3.57,5.48-6.75,8.02-9.99c11.39-14.55,22.8-29.1,34.13-43.7c4.55-5.86,10.04-9.55,19.56-8.8
		c-18.85,24.09-36.99,47.28-55.38,70.79c17.99,23.6,35.79,46.96,54.2,71.12c-9.1,1.28-14.49-2.62-19.06-8.65
		c-13.58-17.89-27.25-35.72-41.47-54.34c-5.72,7.25-11.22,14.17-16.67,21.12c-8.48,10.81-16.93,21.64-25.4,32.46
		c-4.4,5.62-9.77,9.16-18.86,8.01c18.43-23.56,36.3-46.4,54.63-69.82C863.86,376.59,846.1,353.29,827.87,329.36z"/>
	<path class="st1" d="M350.45,356.99c0-7.25,0.1-14.5-0.04-21.75c-0.08-4.25,1.2-6.54,5.98-6.36c7.24,0.26,14.5,0.21,21.74,0.02
		c4.13-0.11,5.94,1.45,5.92,5.65c-0.09,15-0.1,30.01,0.01,45.01c0.03,4.04-1.39,6.06-5.62,6.01c-7.5-0.1-15-0.11-22.5,0.01
		c-4.31,0.07-5.61-2.11-5.54-6.06C350.55,371.99,350.45,364.49,350.45,356.99z"/>
	<path class="st1" d="M384.02,443.14c0,7.23-0.12,14.46,0.04,21.68c0.09,4.11-1.52,5.91-5.7,5.83c-7.47-0.15-14.95-0.17-22.42,0
		c-4.37,0.1-5.55-2.07-5.52-5.99c0.09-14.7,0.11-29.41,0-44.11c-0.04-4.62,2.11-6.08,6.44-5.95c6.72,0.2,13.46,0.27,20.18-0.02
		c5.11-0.22,7.28,1.59,7.07,6.88C383.8,428.67,384.03,435.91,384.02,443.14z"/>
	<path class="st1" d="M666.59,414.97c-15.61,0-15.67,0-15.6-15.95c0.07-15.16-1.99-14.03,13.99-13.96
		c18.39,0.07,15.95-2.08,15.98,15.71C680.99,417.03,682.8,414.78,666.59,414.97z"/>
</g>
</svg>
