<?xml version="1.0" encoding="utf-8"?>
<!-- Generator: Adobe Illustrator 25.0.0, SVG Export Plug-In . SVG Version: 6.00 Build 0)  -->
<svg version="1.1" id="svg318" xmlns="http://www.w3.org/2000/svg" xmlns:xlink="http://www.w3.org/1999/xlink" x="0px" y="0px"
	 viewBox="0 0 1200 800" style="enable-background:new 0 0 1200 800;" xml:space="preserve">
<style type="text/css">
	.st0{fill:none;}
	.st1{fill:#B7B7DA;}
</style>
<path class="st0" d="z"/>
<g id="g316" transform="translate(-64 -64.45)">
	<path id="path314" class="st1" d="M572.92,1188.2l-45.16,45.19l-45.16-45.19l45.16-45.16L572.92,1188.2z M682.61,1078.54
		l77.41,77.41l45.19-45.16L682.61,988.2l-122.59,122.59l45.19,45.16L682.61,1078.54z M837.45,1143.04l-45.16,45.16l45.16,45.19
		l45.16-45.19L837.45,1143.04z M682.61,1297.89l-77.41-77.41l-45.19,45.16l122.59,122.56l122.59-122.56l-45.19-45.16L682.61,1297.89
		z M682.61,1233.39l45.16-45.19l-45.16-45.16l-45.16,45.16L682.61,1233.39z M231.82,1605.98v-0.44c0-23.59-12.5-35.38-32.84-43.16
		c12.5-7,23.06-18.03,23.06-37.84v-0.5c0-27.59-22.06-45.41-57.94-45.41h-81.5v175.56h83.5
		C205.73,1654.14,231.82,1638.07,231.82,1605.98z M183.67,1530.98c0,13.06-10.78,18.56-27.84,18.56h-35.72v-37.13h38.12
		c16.28,0,25.31,6.53,25.31,18.06L183.67,1530.98z M193.45,1601.2c0,13.06-10.28,19.06-27.34,19.06h-46v-38.62h44.75
		c19.81,0,28.59,7.28,28.59,19.06L193.45,1601.2z M312.82,1654.14v-175.56H274.2v175.56H312.82z M520.42,1654.14v-175.56h-38.12
		v108.22l-82.25-108.09h-35.62v175.56h38.12v-111.75l85.03,111.62L520.42,1654.14z M734.36,1654.14l-75.25-176.72h-35.59
		l-75.28,176.72h39.38l16.06-39.38h74.25l16.06,39.38L734.36,1654.14z M664.14,1580.54h-46.66l23.31-56.91L664.14,1580.54z
		 M918.45,1654.04v-175.47h-38.13v108.22l-82.09-108.22h-35.62v175.56h38.13v-111.62l85,111.62L918.45,1654.04z M1117.82,1625.7
		l-24.56-25c-13.81,12.5-26.09,20.56-46.16,20.56c-30.09,0-50.91-25-50.91-55.16v-0.5c0-30.09,21.31-54.69,50.91-54.69
		c17.56,0,31.25,7.53,44.91,19.81l24.56-28.34c-16.31-16.03-36.12-27.06-69.22-27.06c-53.91,0-91.53,40.88-91.53,90.78v0.5
		c0,50.41,38.38,90.28,90.03,90.28c33.84,0.25,53.91-11.78,71.97-31.09V1625.7z M1282.61,1654.14v-34.38h-95.31v-36.88h82.81v-34.38
		h-82.81v-35.56h94.06v-34.38h-132.41v175.56H1282.61z"/>
</g>
<path class="st0" d="z"/>
<g>
	<path class="st1" d="M484.5,441.72c9.74-22.02,18.84-42.76,28.07-63.43c7.05-15.8,14.4-31.47,21.32-47.32
		c1.62-3.72,3.7-4.92,7.62-4.79c8.51,0.28,17.04,0.09,26.79,0.09c-4.21,8.85-8.11,16.82-11.81,24.88
		c-19.49,42.49-39.01,84.97-58.26,127.57c-2.02,4.47-4.48,5.75-9.07,5.58c-8.98-0.33-17.98-0.1-27.64-0.1
		c-3.22-20.84-6.39-41.37-9.89-64.04c-3.5,6.84-6.2,11.76-8.58,16.84c-6.28,13.44-12.6,26.88-18.5,40.49
		c-2.13,4.92-4.66,7.23-10.41,6.87c-9.39-0.58-18.85-0.16-28.76-0.16c-8.15-52.63-16.22-104.79-24.38-157.46
		c10.44,0,20.64,0,31.61,0c5.26,37.51,10.52,75.05,15.78,112.58c0.48,0.15,0.96,0.29,1.44,0.44c5.3-11.72,10.64-23.43,15.89-35.17
		c11.11-24.82,22.12-49.68,33.36-74.44c0.75-1.64,2.98-3.64,4.58-3.7c9.4-0.35,18.83-0.17,29.56-0.17
		c-4.5,9.33-8.06,18.04-12.75,26.1c-6.58,11.29-7.74,22.68-5.13,35.43c3.29,16.06,4.99,32.44,7.44,48.67
		C482.96,437.73,483.57,438.93,484.5,441.72z"/>
	<path class="st1" d="M1073.64,483.89c-10.3,0-19.93,0-30.34,0c1.64-10.75,3.17-21.12,4.81-31.47c2.36-14.88,4.82-29.75,7.19-44.62
		c1.77-11.09-2.22-15.85-13.28-15.43c-4.24,0.16-8.58,0.67-12.64,1.83c-8.07,2.3-13.85,5.9-15.11,16.07
		c-3.04,24.51-7.63,48.83-11.65,73.55c-9.99,0-19.79,0-30.33,0c3.28-20.39,6.53-40.33,9.67-60.28c1.02-6.44,2.16-12.9,2.54-19.39
		c0.49-8.42-3.22-12.07-11.72-11.78c-4.44,0.15-9.03,0.75-13.25,2.1c-8.41,2.67-14.51,6.73-15.7,17.34
		c-2.42,21.66-6.54,43.12-9.98,64.66c-0.39,2.41-0.93,4.8-1.44,7.43c-9.83,0-19.44,0-30.11,0c6.05-38.29,12.04-76.14,18.13-114.67
		c7.46,0,14.62-0.19,21.76,0.17c1.36,0.07,3.01,2.13,3.82,3.66c1.22,2.32,1.81,4.96,2.93,8.23c10.89-7.27,21.53-13.42,34.38-13.88
		c12.97-0.47,24.22,2.42,30.56,15.45c11.87-7.49,23.66-13.76,37.5-15.14c25.39-2.53,38.54,10.82,34.93,36.3
		c-2.46,17.36-5.58,34.62-8.36,51.94C1076.47,465.23,1075.08,474.54,1073.64,483.89z"/>
	<path class="st1" d="M639.07,484.02c-3.82,0-6.96-0.19-10.06,0.04c-8.45,0.63-16.59,0.93-16.99-9.55
		c-9.07,3.43-17.5,7.81-26.46,9.77c-21.36,4.67-36.16-4.79-40.01-26.22c-4.48-24.93,0.08-48.87,13.06-70.7
		c7.1-11.94,18.67-17.74,32.35-19.52c20.07-2.6,39.45-0.76,57.8,8.45c4.39,2.2,5.66,5.01,4.84,10.23
		C648.54,418.68,643.95,450.93,639.07,484.02z M573.05,439.17c1.14,18.18,9.13,24.05,26.17,18.31c3.35-1.13,6.93-2.59,9.45-4.92
		c2.58-2.39,5.13-5.84,5.74-9.19c2.73-15,4.85-30.13,6.96-45.24c0.22-1.59-0.5-4.26-1.66-4.95c-11.83-6.98-33.32-0.59-38.11,12.29
		C577.58,416.27,575.81,427.9,573.05,439.17z"/>
	<path class="st1" d="M1124.79,441.02c-0.07,0.73-0.27,2.28-0.37,3.83c-0.67,11.17,2.76,15.79,13.92,16.01
		c11.66,0.22,23.36-0.85,35.03-1.57c4.68-0.29,9.32-1.15,15-1.88c-1.11,6.96-1.98,13.52-3.36,19.97c-0.26,1.2-2.47,2.37-4.01,2.84
		c-19.67,6.02-39.89,7.06-60.15,5.01c-13.52-1.37-22.31-9.72-25-22.99c-5.44-26.8-0.23-52.27,11.91-76.35
		c4.48-8.89,12.94-13.6,22.4-16.07c14.37-3.74,28.97-4.33,43.49-1.3c21.64,4.52,30.06,19.21,24.83,41.18
		c-4.63,19.41-19.35,28.84-41.46,31.13C1146.63,441.92,1136.02,441.02,1124.79,441.02z M1127.64,418.65
		c9.92,3.09,23.83,1.99,32.22-2.49c5.64-3.01,8.49-7.82,9.01-14.07c0.44-5.29-1.91-8.86-7.2-9.62c-21.41-3.1-29.53,3.51-32.9,20.3
		C1128.39,414.74,1128.02,416.7,1127.64,418.65z"/>
	<path class="st1" d="M861.33,368.81c-1.34,8.35-2.5,15.59-3.76,23.39c-8.51,0-16.75,0-25.88,0c-2.66,19.32-5.44,38.14-7.75,57.01
		c-0.84,6.85,3.31,10.48,9.72,12.54c10.13,3.26,10.05,3.53,8.57,14.01c-0.37,2.65-0.83,5.29-1.32,8.31c-8.8,0-17.35,0.6-25.79-0.14
		c-12.1-1.07-20.99-8.94-21.44-21.34c-0.48-13.08,1.62-26.29,3.1-39.38c1.13-10.03,3.05-19.97,4.74-30.67c-5.99,0-11.71,0-18.14,0
		c0.75-5.36,0.98-10.07,2.22-14.49c0.51-1.81,3.07-4.1,4.92-4.31c12.46-1.44,17.87-8.9,19.75-20.58c0.84-5.22,3.41-10.16,5.23-15.35
		c8.38,0,16.43,0,25.13,0c-1.62,10.17-3.2,20.03-4.95,31C844.45,368.81,852.57,368.81,861.33,368.81z"/>
	<path class="st1" d="M681.32,315.65c9.92,0,19.53,0,29.99,0c-2.08,12.96-4.12,25.5-6.12,38.06c-4.48,28.16-8.97,56.33-13.42,84.5
		c-2.84,17.95-1.82,19.62,15.08,25.51c1.24,0.43,2.43,0.98,3.99,1.61c-0.89,6.15-1.76,12.12-2.61,17.99
		c-9.43,0-18.7,1.01-27.65-0.24c-13.37-1.87-20.84-10.76-20.6-24.96c0.2-11.82,2.2-23.66,4-35.4
		c5.17-33.74,10.63-67.44,16.01-101.14C680.31,319.61,680.86,317.68,681.32,315.65z"/>
	<path class="st1" d="M745.08,315.65c10.22,0,19.83,0,30.42,0c-1.92,11.73-3.84,23.13-5.64,34.55
		c-4.91,31.09-9.92,62.17-14.58,93.31c-1.81,12.1,0.11,15.36,11.97,18.7c6.82,1.93,8.24,4.89,6.79,11.41
		c-2.34,10.47-1.98,10.59-12.81,10.54c-4.73-0.02-9.51,0.22-14.16-0.41c-14.2-1.93-22.53-9.8-22.53-24.04
		c0-13.15,2.12-26.37,4.09-39.44C733.85,385.58,739.49,350.96,745.08,315.65z"/>
	<path class="st1" d="M294.37,380.2c-66.2-11.33-132.67-11.95-199.11-8.94c-0.25-1.35-0.46-1.79-0.4-2.2
		c0.83-5.09,1.7-10.18,2.75-16.43c12.35-1.02,24.79-2.47,37.28-3.01c46.11-2.01,91.79,0.97,136.51,13.3
		c6.27,1.73,12.26,4.47,18.53,6.19C296.07,370.81,297.31,374.14,294.37,380.2z"/>
	<path class="st1" d="M854.99,483.77c6.07-38.29,12.07-76.16,18.11-114.25c10.13,0,19.73,0,30.32,0
		c-6.06,38.24-12.04,76.06-18.09,114.25C875.31,483.77,865.54,483.77,854.99,483.77z"/>
	<path class="st1" d="M8.88,419.25c66.05,11.07,132.32,12.3,199.5,8.94c-0.7,5.31-0.88,10.05-2.15,14.46
		c-0.46,1.59-3.46,3.29-5.45,3.49c-35.27,3.54-70.57,4.21-105.91,0.74c-24.71-2.43-49.03-6.7-72.67-14.48
		c-2.52-0.83-5.23-1.11-7.85-1.65C8.06,429.45,5.52,426.14,8.88,419.25z"/>
	<path class="st1" d="M10.41,405.42c0.76-4.38,1.21-7,1.93-11.14c42.89-1.86,85.95-3.73,129.83-5.63
		c-1.33,8.03-2.37,14.37-3.67,22.23C95.89,409.07,53.51,407.26,10.41,405.42z"/>
	<path class="st1" d="M291.65,394.16c1.38,7.8-0.69,10.57-7.68,10.82c-39.58,1.42-79.14,3.25-118.71,4.92
		c-0.88,0.04-1.76-0.13-3.6-0.29c1-6.71,1.96-13.17,3.11-20.92C207.49,390.54,249.68,392.35,291.65,394.16z"/>
	<path class="st1" d="M301.87,332.78c-35.36-28.19-76.76-39.17-121.32-41.94c0.32-3.04,0.46-5.48,0.86-7.88
		c0.66-3.94,1.48-7.85,2.3-12.12c19.92,0.81,38.7,4.85,56.88,11.77c22.66,8.61,42.44,21.53,58.79,39.53
		C302.15,325.18,304.97,328.16,301.87,332.78z"/>
	<path class="st1" d="M1.88,467.22c35.25,28.26,76.52,39.33,121.14,42.17c-1.14,6.56-2.17,12.46-3.48,20.04
		c-11.78-2-23.4-3.82-34.96-5.95c-31.83-5.88-58.23-21.52-79.91-45.24c-2.32-2.54-3.15-6.44-4.67-9.71
		C0.63,468.09,1.25,467.66,1.88,467.22z"/>
	<path class="st1" d="M160.87,270.15c-1.16,7.65-2.1,13.82-2.8,18.4c-23.92,4.88-47.34,8.89-70.35,14.56
		c-23.01,5.67-44.14,16.3-64.17,29.06c-0.52-0.5-1.04-0.99-1.57-1.49c1.45-2.06,2.56-4.53,4.42-6.11
		c29.85-25.52,64.21-41.89,102.65-49.63C139.3,272.87,149.74,271.79,160.87,270.15z"/>
	<path class="st1" d="M282.22,467.24c-2.1,3.29-3.17,6.2-5.22,7.98c-23.78,20.63-50.76,35.97-80.96,44.57
		c-16.9,4.81-34.66,6.61-53.64,10.05c1.2-7.33,1.71-12.85,3.21-18.09c0.4-1.41,3.77-2.65,5.85-2.79
		c31.5-2.06,61.91-8.85,90.79-21.59C255.38,481.59,267.93,474.5,282.22,467.24z"/>
	<path class="st1" d="M102.89,487.35c1.05-6.85,1.96-12.78,2.88-18.79c23.23,0,46.07,0,69.79,0c-0.83,5.31-1.49,10.76-2.65,16.1
		c-0.28,1.27-2.12,3.01-3.38,3.14C147.57,489.98,125.62,490.48,102.89,487.35z"/>
	<path class="st1" d="M200.21,313.43c-0.88,5.57-1.81,11.49-2.77,17.58c-23.16,0-45.99,0-69.46,0c0.7-5.1,1.14-10.2,2.22-15.15
		c0.33-1.5,2.3-3.6,3.7-3.75c21.76-2.37,43.54-3.14,65.27,0.42C199.34,312.55,199.49,312.79,200.21,313.43z"/>
	<path class="st1" d="M5.63,442.41c24.57,12.1,50.76,18.71,78.31,22.83c-0.98,6.4-1.88,12.27-2.87,18.79
		c-27.41-5.62-52.52-15.08-74.39-31.92c-2.1-1.61-2.29-5.7-3.36-8.64C4.09,443.12,4.86,442.77,5.63,442.41z"/>
	<path class="st1" d="M285.94,442.77c-1.65,3.24-2.28,6.31-4.17,7.89c-14.29,12.02-65.61,31.32-86.04,32.48
		c0.73-5.16,1.12-10.29,2.36-15.21c0.38-1.49,3-3.02,4.83-3.42c13.81-3,27.83-5.15,41.49-8.69
		C257.85,452.34,270.94,447.55,285.94,442.77z"/>
	<path class="st1" d="M222.25,315.83c22.47,4.48,43.25,11.71,62.48,23.2c3.62,2.17,7.29,4.26,10.97,6.32
		c4.76,2.65,5.16,6.19,2.11,10.91c-24.17-13.55-51.3-16.69-78.51-22.24C220.28,328.06,221.22,322.24,222.25,315.83z"/>
	<path class="st1" d="M107.85,316.04c-0.92,5.59-0.99,10.69-2.8,15.08c-0.88,2.14-4.82,3.65-7.64,4.29
		c-19.19,4.36-38.52,8.15-57.66,12.71c-6.91,1.65-13.45,4.89-20.5,7.53c-2.47-8.23,4.56-9.98,9.07-12.14
		c23.05-11.04,46.5-21.15,71.78-26.14C102.45,316.91,104.8,316.56,107.85,316.04z"/>
	<path class="st1" d="M890.74,357.17c-18.54,0.01-17.53,1.71-14.24-17.12c2.03-11.61,2.13-11.59,14.08-11.6
		c4.26,0,8.53,0.15,12.78-0.03c5.49-0.24,8.05,1.66,6.71,7.54c-1.04,4.57-1.91,9.21-2.35,13.87c-0.53,5.68-3.4,7.86-8.91,7.37
		C896.14,356.98,893.43,357.17,890.74,357.17z"/>
	<path class="st1" d="M75.45,354.75c-1.25,7.7-2.08,12.73-2.9,17.8c-19.26,2.45-38.12,4.85-57.39,7.3c-0.82-4.84,0.15-8.3,5.74-9.82
		C38.55,365.23,56.14,360.18,75.45,354.75z"/>
	<path class="st1" d="M228.11,441.53c0.93-5.32,1.76-10.11,2.55-14.66c19.69-2.45,38.75-4.83,57.68-7.19
		c1.65,8.19-4.17,9.77-9.59,11.07c-16.1,3.86-32.27,7.4-48.41,11.04C229.95,441.87,229.5,441.7,228.11,441.53z"/>
</g>
</svg>
